<mxfile host="app.diagrams.net" agent="Mozilla/5.0 (Windows NT 10.0; Win64; x64) AppleWebKit/537.36 (KHTML, like Gecko) Chrome/127.0.0.0 Safari/537.36" version="24.7.7">
  <diagram name="페이지-1" id="1RcC5qNRcjHD-i6j9Skm">
    <mxGraphModel dx="2925" dy="1155" grid="1" gridSize="10" guides="1" tooltips="1" connect="1" arrows="1" fold="1" page="1" pageScale="1" pageWidth="827" pageHeight="1169" math="0" shadow="0">
      <root>
        <mxCell id="0" />
        <mxCell id="1" parent="0" />
        <mxCell id="Sz_00_6w1vbuykZ_h46c-1" value="개체(ENTITY)&lt;div&gt;주요 관심사는 해결하려는 마인드&lt;/div&gt;" style="rounded=0;whiteSpace=wrap;html=1;fillColor=#dae8fc;strokeColor=#6c8ebf;" parent="1" vertex="1">
          <mxGeometry x="-290" y="170" width="190" height="60" as="geometry" />
        </mxCell>
        <mxCell id="Sz_00_6w1vbuykZ_h46c-2" value="속성(ATTRBUTE)" style="ellipse;whiteSpace=wrap;html=1;fillColor=#e1d5e7;strokeColor=#9673a6;" parent="1" vertex="1">
          <mxGeometry x="-270" y="270" width="120" height="80" as="geometry" />
        </mxCell>
        <mxCell id="Sz_00_6w1vbuykZ_h46c-3" value="관계(RELATION)" style="rhombus;whiteSpace=wrap;html=1;fillColor=#f5f5f5;strokeColor=#666666;fontColor=#333333;" parent="1" vertex="1">
          <mxGeometry x="-270" y="370" width="120" height="130" as="geometry" />
        </mxCell>
        <mxCell id="Sz_00_6w1vbuykZ_h46c-4" value="&lt;font style=&quot;font-size: 25px;&quot;&gt;ERD(Entily Realtional Diagram, 개체 관계도)&lt;/font&gt;" style="rounded=0;whiteSpace=wrap;html=1;fillColor=#d5e8d4;strokeColor=#82b366;" parent="1" vertex="1">
          <mxGeometry x="-310" y="10" width="760" height="60" as="geometry" />
        </mxCell>
        <mxCell id="Sz_00_6w1vbuykZ_h46c-5" value="현실 세계에 존재하는 개념, 엄무에서 주요 관심사항의 핵심 키워드&lt;div&gt;예) 고객, 회원, 학생...&lt;/div&gt;&lt;div&gt;&lt;br&gt;&lt;/div&gt;" style="text;html=1;align=center;verticalAlign=middle;resizable=0;points=[];autosize=1;strokeColor=none;fillColor=none;" parent="1" vertex="1">
          <mxGeometry x="-60" y="180" width="380" height="60" as="geometry" />
        </mxCell>
        <mxCell id="Sz_00_6w1vbuykZ_h46c-7" value="개체와 개체의 연관성, 관련성&lt;div&gt;&lt;br&gt;&lt;/div&gt;&lt;div&gt;예)&amp;nbsp; 고객 개체와 상품 개체가 있다면, 고객은 상품을 구입하는 관계&amp;nbsp;&lt;/div&gt;&lt;div&gt;반대로 상품은 고객에게 판매되는데 이때 1:1, 1N, ,NM 의 관계와 필수와 선택사항 여부를 결정하여야함&lt;/div&gt;" style="text;html=1;align=center;verticalAlign=middle;resizable=0;points=[];autosize=1;strokeColor=none;fillColor=none;" parent="1" vertex="1">
          <mxGeometry x="-90" y="380" width="570" height="70" as="geometry" />
        </mxCell>
        <mxCell id="Sz_00_6w1vbuykZ_h46c-8" value="개체의 특성, 성격&lt;div&gt;에) 고객, 이름, 사는곳, 연락처&lt;/div&gt;" style="text;html=1;align=center;verticalAlign=middle;resizable=0;points=[];autosize=1;strokeColor=none;fillColor=none;" parent="1" vertex="1">
          <mxGeometry y="270" width="180" height="40" as="geometry" />
        </mxCell>
        <mxCell id="Sz_00_6w1vbuykZ_h46c-9" value="사용법&lt;div&gt;1.&lt;/div&gt;&lt;div&gt;2.&lt;/div&gt;&lt;div&gt;3.&lt;/div&gt;" style="rounded=0;whiteSpace=wrap;html=1;fillColor=#fff2cc;strokeColor=#d6b656;" parent="1" vertex="1">
          <mxGeometry x="-310" y="80" width="670" height="60" as="geometry" />
        </mxCell>
        <mxCell id="mHg_K5r4MnzTMmaqs2IJ-1" value="&lt;div style=&quot;text-align: left;&quot;&gt;&lt;span style=&quot;font-size: 25px; background-color: initial;&quot;&gt;CRUD&lt;/span&gt;&lt;/div&gt;&lt;div style=&quot;&quot;&gt;&lt;font style=&quot;font-size: 19px;&quot;&gt;CREATE,READ,UPDATE 작업 가장 기본&lt;/font&gt;&lt;/div&gt;&lt;div style=&quot;&quot;&gt;&lt;span style=&quot;font-size: 19px;&quot;&gt;ex) 회원관리,&amp;nbsp;&lt;/span&gt;&lt;/div&gt;" style="rounded=0;whiteSpace=wrap;html=1;" vertex="1" parent="1">
          <mxGeometry x="-320" y="530" width="630" height="160" as="geometry" />
        </mxCell>
        <mxCell id="mHg_K5r4MnzTMmaqs2IJ-2" value="&lt;font style=&quot;font-size: 32px;&quot;&gt;데이터 모델링&lt;/font&gt;" style="rounded=0;whiteSpace=wrap;html=1;" vertex="1" parent="1">
          <mxGeometry x="510" y="10" width="600" height="60" as="geometry" />
        </mxCell>
        <mxCell id="mHg_K5r4MnzTMmaqs2IJ-3" value="&lt;u&gt;&lt;font style=&quot;font-size: 23px;&quot;&gt;개요&lt;/font&gt;&lt;/u&gt;&lt;div style=&quot;font-size: 16px;&quot;&gt;&lt;span style=&quot;color: rgb(31, 31, 31); font-family: Arial, &amp;quot;Apple SD Gothic Neo&amp;quot;, sans-serif; text-align: left; background-color: rgb(255, 255, 255);&quot;&gt;데이터 모델링은&amp;nbsp;&lt;/span&gt;&lt;span style=&quot;background: linear-gradient(90deg, rgb(211, 227, 253) 50%, rgba(0, 0, 0, 0) 50%) 0% 0px / 200% 100% no-repeat rgb(255, 255, 255); color: rgb(4, 12, 40); animation: 0.75s cubic-bezier(0.05, 0.7, 0.1, 1) 0.25s 1 normal forwards running highlight; font-family: Arial, &amp;quot;Apple SD Gothic Neo&amp;quot;, sans-serif; text-align: left;&quot;&gt;조직의 정보 수집과 관리 시스템을 정의하는 시각적 표현 또는 청사진을 생성하는 프로세스&lt;/span&gt;&lt;span style=&quot;color: rgb(31, 31, 31); font-family: Arial, &amp;quot;Apple SD Gothic Neo&amp;quot;, sans-serif; text-align: left; background-color: rgb(255, 255, 255);&quot;&gt;입니다. 이 청사진 또는 데이터 모델은 데이터 분석자, 과학자, 엔지니어와 같은 다양한 이해관계자들이 조직의 데이터에 대한 통일된 개념을 생성할 수 있게 돕습니다.&lt;/span&gt;&lt;br&gt;&lt;/div&gt;" style="rounded=0;whiteSpace=wrap;html=1;" vertex="1" parent="1">
          <mxGeometry x="472" y="95" width="670" height="85" as="geometry" />
        </mxCell>
        <mxCell id="mHg_K5r4MnzTMmaqs2IJ-4" value="회원" style="rounded=0;whiteSpace=wrap;html=1;" vertex="1" parent="1">
          <mxGeometry x="740" y="410" width="190" height="60" as="geometry" />
        </mxCell>
        <mxCell id="mHg_K5r4MnzTMmaqs2IJ-5" value="메모" style="rounded=0;whiteSpace=wrap;html=1;" vertex="1" parent="1">
          <mxGeometry x="1140" y="390" width="120" height="60" as="geometry" />
        </mxCell>
        <mxCell id="mHg_K5r4MnzTMmaqs2IJ-6" style="edgeStyle=orthogonalEdgeStyle;rounded=0;orthogonalLoop=1;jettySize=auto;html=1;exitX=1;exitY=0.5;exitDx=0;exitDy=0;" edge="1" parent="1" source="Sz_00_6w1vbuykZ_h46c-9" target="Sz_00_6w1vbuykZ_h46c-9">
          <mxGeometry relative="1" as="geometry" />
        </mxCell>
        <mxCell id="mHg_K5r4MnzTMmaqs2IJ-7" value="&lt;p style=&quot;line-height: 270%;&quot;&gt;&lt;font style=&quot;font-size: 26px;&quot;&gt;메모앱&lt;/font&gt;&lt;/p&gt;&lt;div&gt;회원가입을 한 뒤 일일 메모를 작성하고, 중요한 일정을 알림등록할 수 있는 앱&lt;/div&gt;&lt;p&gt;&lt;/p&gt;" style="rounded=0;whiteSpace=wrap;html=1;opacity=0;" vertex="1" parent="1">
          <mxGeometry x="697" y="210" width="380" height="100" as="geometry" />
        </mxCell>
        <mxCell id="mHg_K5r4MnzTMmaqs2IJ-8" value="아이디" style="ellipse;whiteSpace=wrap;html=1;" vertex="1" parent="1">
          <mxGeometry x="827" y="305" width="120" height="80" as="geometry" />
        </mxCell>
        <mxCell id="mHg_K5r4MnzTMmaqs2IJ-16" style="edgeStyle=orthogonalEdgeStyle;rounded=0;orthogonalLoop=1;jettySize=auto;html=1;entryX=0.25;entryY=0;entryDx=0;entryDy=0;startArrow=baseDash;startFill=0;strokeColor=default;endArrow=none;endFill=0;" edge="1" parent="1" source="mHg_K5r4MnzTMmaqs2IJ-9" target="mHg_K5r4MnzTMmaqs2IJ-4">
          <mxGeometry relative="1" as="geometry" />
        </mxCell>
        <mxCell id="mHg_K5r4MnzTMmaqs2IJ-9" value="이름" style="ellipse;whiteSpace=wrap;html=1;" vertex="1" parent="1">
          <mxGeometry x="697" y="305" width="120" height="70" as="geometry" />
        </mxCell>
        <mxCell id="mHg_K5r4MnzTMmaqs2IJ-18" style="edgeStyle=orthogonalEdgeStyle;rounded=0;orthogonalLoop=1;jettySize=auto;html=1;entryX=0;entryY=0.5;entryDx=0;entryDy=0;startArrow=none;startFill=0;endArrow=none;endFill=0;" edge="1" parent="1" source="mHg_K5r4MnzTMmaqs2IJ-10" target="mHg_K5r4MnzTMmaqs2IJ-4">
          <mxGeometry relative="1" as="geometry" />
        </mxCell>
        <mxCell id="mHg_K5r4MnzTMmaqs2IJ-10" value="이메일주소" style="ellipse;whiteSpace=wrap;html=1;" vertex="1" parent="1">
          <mxGeometry x="570" y="400" width="120" height="80" as="geometry" />
        </mxCell>
        <mxCell id="mHg_K5r4MnzTMmaqs2IJ-11" value="비밀번호" style="ellipse;whiteSpace=wrap;html=1;" vertex="1" parent="1">
          <mxGeometry x="730" y="530" width="120" height="80" as="geometry" />
        </mxCell>
        <mxCell id="mHg_K5r4MnzTMmaqs2IJ-12" value="가입일" style="ellipse;whiteSpace=wrap;html=1;" vertex="1" parent="1">
          <mxGeometry x="861" y="530" width="120" height="80" as="geometry" />
        </mxCell>
        <mxCell id="mHg_K5r4MnzTMmaqs2IJ-13" style="edgeStyle=orthogonalEdgeStyle;rounded=0;orthogonalLoop=1;jettySize=auto;html=1;exitX=0.5;exitY=0;exitDx=0;exitDy=0;entryX=0.216;entryY=1;entryDx=0;entryDy=0;entryPerimeter=0;startArrow=baseDash;startFill=0;strokeColor=default;endArrow=none;endFill=0;" edge="1" parent="1" source="mHg_K5r4MnzTMmaqs2IJ-11" target="mHg_K5r4MnzTMmaqs2IJ-4">
          <mxGeometry relative="1" as="geometry" />
        </mxCell>
        <mxCell id="mHg_K5r4MnzTMmaqs2IJ-14" style="edgeStyle=orthogonalEdgeStyle;rounded=0;orthogonalLoop=1;jettySize=auto;html=1;exitX=0.5;exitY=0;exitDx=0;exitDy=0;entryX=0.8;entryY=0.983;entryDx=0;entryDy=0;entryPerimeter=0;startArrow=none;startFill=0;endArrow=none;endFill=0;" edge="1" parent="1" source="mHg_K5r4MnzTMmaqs2IJ-12" target="mHg_K5r4MnzTMmaqs2IJ-4">
          <mxGeometry relative="1" as="geometry" />
        </mxCell>
        <mxCell id="mHg_K5r4MnzTMmaqs2IJ-15" style="edgeStyle=orthogonalEdgeStyle;rounded=0;orthogonalLoop=1;jettySize=auto;html=1;exitX=0.5;exitY=1;exitDx=0;exitDy=0;entryX=0.811;entryY=0.017;entryDx=0;entryDy=0;entryPerimeter=0;startArrow=baseDash;startFill=0;strokeColor=default;endArrow=none;endFill=0;" edge="1" parent="1" source="mHg_K5r4MnzTMmaqs2IJ-8" target="mHg_K5r4MnzTMmaqs2IJ-4">
          <mxGeometry relative="1" as="geometry" />
        </mxCell>
        <mxCell id="mHg_K5r4MnzTMmaqs2IJ-19" value="아이디" style="ellipse;whiteSpace=wrap;html=1;" vertex="1" parent="1">
          <mxGeometry x="1080" y="290" width="120" height="80" as="geometry" />
        </mxCell>
        <mxCell id="mHg_K5r4MnzTMmaqs2IJ-20" value="작성자" style="ellipse;whiteSpace=wrap;html=1;" vertex="1" parent="1">
          <mxGeometry x="1200" y="270" width="120" height="80" as="geometry" />
        </mxCell>
        <mxCell id="mHg_K5r4MnzTMmaqs2IJ-28" style="edgeStyle=orthogonalEdgeStyle;rounded=0;orthogonalLoop=1;jettySize=auto;html=1;entryX=1;entryY=1;entryDx=0;entryDy=0;startArrow=baseDash;startFill=0;strokeColor=default;endArrow=none;endFill=0;" edge="1" parent="1" source="mHg_K5r4MnzTMmaqs2IJ-21" target="mHg_K5r4MnzTMmaqs2IJ-5">
          <mxGeometry relative="1" as="geometry" />
        </mxCell>
        <mxCell id="mHg_K5r4MnzTMmaqs2IJ-21" value="제목" style="ellipse;whiteSpace=wrap;html=1;" vertex="1" parent="1">
          <mxGeometry x="1330" y="485" width="120" height="80" as="geometry" />
        </mxCell>
        <mxCell id="mHg_K5r4MnzTMmaqs2IJ-33" style="edgeStyle=orthogonalEdgeStyle;rounded=0;orthogonalLoop=1;jettySize=auto;html=1;startArrow=baseDash;startFill=0;strokeColor=default;endArrow=none;endFill=0;" edge="1" parent="1" source="mHg_K5r4MnzTMmaqs2IJ-22" target="mHg_K5r4MnzTMmaqs2IJ-5">
          <mxGeometry relative="1" as="geometry" />
        </mxCell>
        <mxCell id="mHg_K5r4MnzTMmaqs2IJ-22" value="내용" style="ellipse;whiteSpace=wrap;html=1;" vertex="1" parent="1">
          <mxGeometry x="1330" y="385" width="110" height="70" as="geometry" />
        </mxCell>
        <mxCell id="mHg_K5r4MnzTMmaqs2IJ-23" value="작성일자" style="ellipse;whiteSpace=wrap;html=1;" vertex="1" parent="1">
          <mxGeometry x="1181" y="570" width="120" height="80" as="geometry" />
        </mxCell>
        <mxCell id="mHg_K5r4MnzTMmaqs2IJ-24" value="알림일자" style="ellipse;whiteSpace=wrap;html=1;" vertex="1" parent="1">
          <mxGeometry x="1061" y="530" width="120" height="80" as="geometry" />
        </mxCell>
        <mxCell id="mHg_K5r4MnzTMmaqs2IJ-25" style="edgeStyle=orthogonalEdgeStyle;rounded=0;orthogonalLoop=1;jettySize=auto;html=1;entryX=0.183;entryY=0.067;entryDx=0;entryDy=0;entryPerimeter=0;startArrow=baseDash;startFill=0;strokeColor=default;endArrow=none;endFill=0;" edge="1" parent="1" source="mHg_K5r4MnzTMmaqs2IJ-19" target="mHg_K5r4MnzTMmaqs2IJ-5">
          <mxGeometry relative="1" as="geometry" />
        </mxCell>
        <mxCell id="mHg_K5r4MnzTMmaqs2IJ-26" style="edgeStyle=orthogonalEdgeStyle;rounded=0;orthogonalLoop=1;jettySize=auto;html=1;entryX=0.192;entryY=1.05;entryDx=0;entryDy=0;entryPerimeter=0;startArrow=baseDash;startFill=0;strokeColor=default;endArrow=none;endFill=0;" edge="1" parent="1" source="mHg_K5r4MnzTMmaqs2IJ-24" target="mHg_K5r4MnzTMmaqs2IJ-5">
          <mxGeometry relative="1" as="geometry" />
        </mxCell>
        <mxCell id="mHg_K5r4MnzTMmaqs2IJ-27" style="edgeStyle=orthogonalEdgeStyle;rounded=0;orthogonalLoop=1;jettySize=auto;html=1;entryX=0.95;entryY=0;entryDx=0;entryDy=0;entryPerimeter=0;startArrow=baseDash;startFill=0;strokeColor=default;endArrow=none;endFill=0;" edge="1" parent="1" source="mHg_K5r4MnzTMmaqs2IJ-20" target="mHg_K5r4MnzTMmaqs2IJ-5">
          <mxGeometry relative="1" as="geometry" />
        </mxCell>
        <mxCell id="mHg_K5r4MnzTMmaqs2IJ-29" style="edgeStyle=orthogonalEdgeStyle;rounded=0;orthogonalLoop=1;jettySize=auto;html=1;entryX=0.658;entryY=1.033;entryDx=0;entryDy=0;entryPerimeter=0;startArrow=baseDash;startFill=0;strokeColor=default;endArrow=none;endFill=0;" edge="1" parent="1" source="mHg_K5r4MnzTMmaqs2IJ-23" target="mHg_K5r4MnzTMmaqs2IJ-5">
          <mxGeometry relative="1" as="geometry" />
        </mxCell>
        <mxCell id="mHg_K5r4MnzTMmaqs2IJ-32" style="edgeStyle=orthogonalEdgeStyle;rounded=0;orthogonalLoop=1;jettySize=auto;html=1;exitX=1;exitY=0.5;exitDx=0;exitDy=0;entryX=0.033;entryY=0.65;entryDx=0;entryDy=0;entryPerimeter=0;startArrow=baseDash;startFill=0;strokeColor=default;endArrow=none;endFill=0;" edge="1" parent="1" source="mHg_K5r4MnzTMmaqs2IJ-30" target="mHg_K5r4MnzTMmaqs2IJ-5">
          <mxGeometry relative="1" as="geometry">
            <mxPoint x="830" y="720" as="targetPoint" />
          </mxGeometry>
        </mxCell>
        <mxCell id="mHg_K5r4MnzTMmaqs2IJ-30" value="작성" style="rhombus;whiteSpace=wrap;html=1;" vertex="1" parent="1">
          <mxGeometry x="981" y="390" width="80" height="80" as="geometry" />
        </mxCell>
        <mxCell id="mHg_K5r4MnzTMmaqs2IJ-31" style="edgeStyle=orthogonalEdgeStyle;rounded=0;orthogonalLoop=1;jettySize=auto;html=1;entryX=0.947;entryY=0.333;entryDx=0;entryDy=0;entryPerimeter=0;startArrow=baseDash;startFill=0;strokeColor=default;endArrow=none;endFill=0;" edge="1" parent="1" source="mHg_K5r4MnzTMmaqs2IJ-30" target="mHg_K5r4MnzTMmaqs2IJ-4">
          <mxGeometry relative="1" as="geometry" />
        </mxCell>
        <mxCell id="mHg_K5r4MnzTMmaqs2IJ-47" value="users" style="text;strokeColor=none;fillColor=none;html=1;fontSize=24;fontStyle=1;verticalAlign=middle;align=center;" vertex="1" parent="1">
          <mxGeometry x="-290" y="750" width="100" height="40" as="geometry" />
        </mxCell>
        <mxCell id="mHg_K5r4MnzTMmaqs2IJ-61" value="MEMOS" style="text;strokeColor=none;fillColor=none;html=1;fontSize=24;fontStyle=1;verticalAlign=middle;align=center;" vertex="1" parent="1">
          <mxGeometry x="290" y="730" width="100" height="40" as="geometry" />
        </mxCell>
        <mxCell id="mHg_K5r4MnzTMmaqs2IJ-62" value="" style="shape=table;startSize=0;container=1;collapsible=0;childLayout=tableLayout;fontStyle=4" vertex="1" parent="1">
          <mxGeometry x="270" y="770" width="852" height="130" as="geometry" />
        </mxCell>
        <mxCell id="mHg_K5r4MnzTMmaqs2IJ-63" value="" style="shape=tableRow;horizontal=0;startSize=0;swimlaneHead=0;swimlaneBody=0;strokeColor=inherit;top=0;left=0;bottom=0;right=0;collapsible=0;dropTarget=0;fillColor=none;points=[[0,0.5],[1,0.5]];portConstraint=eastwest;" vertex="1" parent="mHg_K5r4MnzTMmaqs2IJ-62">
          <mxGeometry width="852" height="40" as="geometry" />
        </mxCell>
        <mxCell id="mHg_K5r4MnzTMmaqs2IJ-64" value="id" style="shape=partialRectangle;html=1;whiteSpace=wrap;connectable=0;strokeColor=inherit;overflow=hidden;fillColor=none;top=0;left=0;bottom=0;right=0;pointerEvents=1;" vertex="1" parent="mHg_K5r4MnzTMmaqs2IJ-63">
          <mxGeometry width="100" height="40" as="geometry">
            <mxRectangle width="100" height="40" as="alternateBounds" />
          </mxGeometry>
        </mxCell>
        <mxCell id="mHg_K5r4MnzTMmaqs2IJ-65" value="title" style="shape=partialRectangle;html=1;whiteSpace=wrap;connectable=0;strokeColor=inherit;overflow=hidden;fillColor=none;top=0;left=0;bottom=0;right=0;pointerEvents=1;" vertex="1" parent="mHg_K5r4MnzTMmaqs2IJ-63">
          <mxGeometry x="100" width="110" height="40" as="geometry">
            <mxRectangle width="110" height="40" as="alternateBounds" />
          </mxGeometry>
        </mxCell>
        <mxCell id="mHg_K5r4MnzTMmaqs2IJ-66" value="content" style="shape=partialRectangle;html=1;whiteSpace=wrap;connectable=0;strokeColor=inherit;overflow=hidden;fillColor=none;top=0;left=0;bottom=0;right=0;pointerEvents=1;" vertex="1" parent="mHg_K5r4MnzTMmaqs2IJ-63">
          <mxGeometry x="210" width="259" height="40" as="geometry">
            <mxRectangle width="259" height="40" as="alternateBounds" />
          </mxGeometry>
        </mxCell>
        <mxCell id="mHg_K5r4MnzTMmaqs2IJ-67" value="waite" style="shape=partialRectangle;html=1;whiteSpace=wrap;connectable=0;strokeColor=inherit;overflow=hidden;fillColor=none;top=0;left=0;bottom=0;right=0;pointerEvents=1;" vertex="1" parent="mHg_K5r4MnzTMmaqs2IJ-63">
          <mxGeometry x="469" width="99" height="40" as="geometry">
            <mxRectangle width="99" height="40" as="alternateBounds" />
          </mxGeometry>
        </mxCell>
        <mxCell id="mHg_K5r4MnzTMmaqs2IJ-68" value="waite_at" style="shape=partialRectangle;html=1;whiteSpace=wrap;connectable=0;strokeColor=inherit;overflow=hidden;fillColor=none;top=0;left=0;bottom=0;right=0;pointerEvents=1;" vertex="1" parent="mHg_K5r4MnzTMmaqs2IJ-63">
          <mxGeometry x="568" width="142" height="40" as="geometry">
            <mxRectangle width="142" height="40" as="alternateBounds" />
          </mxGeometry>
        </mxCell>
        <mxCell id="mHg_K5r4MnzTMmaqs2IJ-89" value="&#xa;&lt;span style=&quot;color: rgb(0, 0, 0); font-family: Helvetica; font-size: 12px; font-style: normal; font-variant-ligatures: normal; font-variant-caps: normal; font-weight: 400; letter-spacing: normal; orphans: 2; text-align: center; text-indent: 0px; text-transform: none; widows: 2; word-spacing: 0px; -webkit-text-stroke-width: 0px; white-space: normal; background-color: rgb(251, 251, 251); text-decoration-thickness: initial; text-decoration-style: initial; text-decoration-color: initial; display: inline !important; float: none;&quot;&gt;alam_at&lt;/span&gt;&#xa;&#xa;" style="shape=partialRectangle;html=1;whiteSpace=wrap;connectable=0;strokeColor=inherit;overflow=hidden;fillColor=none;top=0;left=0;bottom=0;right=0;pointerEvents=1;" vertex="1" parent="mHg_K5r4MnzTMmaqs2IJ-63">
          <mxGeometry x="710" width="142" height="40" as="geometry">
            <mxRectangle width="142" height="40" as="alternateBounds" />
          </mxGeometry>
        </mxCell>
        <mxCell id="mHg_K5r4MnzTMmaqs2IJ-69" value="" style="shape=tableRow;horizontal=0;startSize=0;swimlaneHead=0;swimlaneBody=0;strokeColor=inherit;top=0;left=0;bottom=0;right=0;collapsible=0;dropTarget=0;fillColor=none;points=[[0,0.5],[1,0.5]];portConstraint=eastwest;" vertex="1" parent="mHg_K5r4MnzTMmaqs2IJ-62">
          <mxGeometry y="40" width="852" height="50" as="geometry" />
        </mxCell>
        <mxCell id="mHg_K5r4MnzTMmaqs2IJ-70" value="0001" style="shape=partialRectangle;html=1;whiteSpace=wrap;connectable=0;strokeColor=inherit;overflow=hidden;fillColor=none;top=0;left=0;bottom=0;right=0;pointerEvents=1;" vertex="1" parent="mHg_K5r4MnzTMmaqs2IJ-69">
          <mxGeometry width="100" height="50" as="geometry">
            <mxRectangle width="100" height="50" as="alternateBounds" />
          </mxGeometry>
        </mxCell>
        <mxCell id="mHg_K5r4MnzTMmaqs2IJ-71" value="오늘 뭐 먹지?" style="shape=partialRectangle;html=1;whiteSpace=wrap;connectable=0;strokeColor=inherit;overflow=hidden;fillColor=none;top=0;left=0;bottom=0;right=0;pointerEvents=1;" vertex="1" parent="mHg_K5r4MnzTMmaqs2IJ-69">
          <mxGeometry x="100" width="110" height="50" as="geometry">
            <mxRectangle width="110" height="50" as="alternateBounds" />
          </mxGeometry>
        </mxCell>
        <mxCell id="mHg_K5r4MnzTMmaqs2IJ-72" value="말복도 지났는데, 너무 덥다. 기력이 딸리니까 뭔가 맛있는거 먹고 기운내야지" style="shape=partialRectangle;html=1;whiteSpace=wrap;connectable=0;strokeColor=inherit;overflow=hidden;fillColor=none;top=0;left=0;bottom=0;right=0;pointerEvents=1;" vertex="1" parent="mHg_K5r4MnzTMmaqs2IJ-69">
          <mxGeometry x="210" width="259" height="50" as="geometry">
            <mxRectangle width="259" height="50" as="alternateBounds" />
          </mxGeometry>
        </mxCell>
        <mxCell id="mHg_K5r4MnzTMmaqs2IJ-73" value="rkdls" style="shape=partialRectangle;html=1;whiteSpace=wrap;connectable=0;strokeColor=inherit;overflow=hidden;fillColor=none;top=0;left=0;bottom=0;right=0;pointerEvents=1;" vertex="1" parent="mHg_K5r4MnzTMmaqs2IJ-69">
          <mxGeometry x="469" width="99" height="50" as="geometry">
            <mxRectangle width="99" height="50" as="alternateBounds" />
          </mxGeometry>
        </mxCell>
        <mxCell id="mHg_K5r4MnzTMmaqs2IJ-74" value="&lt;span style=&quot;font-size: 16px;&quot;&gt;2024/08/24&lt;/span&gt;&lt;div style=&quot;font-size: 16px;&quot;&gt;12:20:33&lt;/div&gt;" style="shape=partialRectangle;html=1;whiteSpace=wrap;connectable=0;strokeColor=inherit;overflow=hidden;fillColor=none;top=0;left=0;bottom=0;right=0;pointerEvents=1;" vertex="1" parent="mHg_K5r4MnzTMmaqs2IJ-69">
          <mxGeometry x="568" width="142" height="50" as="geometry">
            <mxRectangle width="142" height="50" as="alternateBounds" />
          </mxGeometry>
        </mxCell>
        <mxCell id="mHg_K5r4MnzTMmaqs2IJ-90" value="&lt;span style=&quot;font-size: 16px;&quot;&gt;2024/08/24&lt;/span&gt;&lt;div style=&quot;font-size: 16px;&quot;&gt;12:20:33&lt;/div&gt;" style="shape=partialRectangle;html=1;whiteSpace=wrap;connectable=0;strokeColor=inherit;overflow=hidden;fillColor=none;top=0;left=0;bottom=0;right=0;pointerEvents=1;" vertex="1" parent="mHg_K5r4MnzTMmaqs2IJ-69">
          <mxGeometry x="710" width="142" height="50" as="geometry">
            <mxRectangle width="142" height="50" as="alternateBounds" />
          </mxGeometry>
        </mxCell>
        <mxCell id="mHg_K5r4MnzTMmaqs2IJ-75" value="" style="shape=tableRow;horizontal=0;startSize=0;swimlaneHead=0;swimlaneBody=0;strokeColor=inherit;top=0;left=0;bottom=0;right=0;collapsible=0;dropTarget=0;fillColor=none;points=[[0,0.5],[1,0.5]];portConstraint=eastwest;" vertex="1" parent="mHg_K5r4MnzTMmaqs2IJ-62">
          <mxGeometry y="90" width="852" height="40" as="geometry" />
        </mxCell>
        <mxCell id="mHg_K5r4MnzTMmaqs2IJ-76" value="0002" style="shape=partialRectangle;html=1;whiteSpace=wrap;connectable=0;strokeColor=inherit;overflow=hidden;fillColor=none;top=0;left=0;bottom=0;right=0;pointerEvents=1;" vertex="1" parent="mHg_K5r4MnzTMmaqs2IJ-75">
          <mxGeometry width="100" height="40" as="geometry">
            <mxRectangle width="100" height="40" as="alternateBounds" />
          </mxGeometry>
        </mxCell>
        <mxCell id="mHg_K5r4MnzTMmaqs2IJ-77" value="저녁운동" style="shape=partialRectangle;html=1;whiteSpace=wrap;connectable=0;strokeColor=inherit;overflow=hidden;fillColor=none;top=0;left=0;bottom=0;right=0;pointerEvents=1;" vertex="1" parent="mHg_K5r4MnzTMmaqs2IJ-75">
          <mxGeometry x="100" width="110" height="40" as="geometry">
            <mxRectangle width="110" height="40" as="alternateBounds" />
          </mxGeometry>
        </mxCell>
        <mxCell id="mHg_K5r4MnzTMmaqs2IJ-78" value="저녁엔 비소식이 있으니깐 실내에서 스탭퍼를 한시간 정도?" style="shape=partialRectangle;html=1;whiteSpace=wrap;connectable=0;strokeColor=inherit;overflow=hidden;fillColor=none;top=0;left=0;bottom=0;right=0;pointerEvents=1;" vertex="1" parent="mHg_K5r4MnzTMmaqs2IJ-75">
          <mxGeometry x="210" width="259" height="40" as="geometry">
            <mxRectangle width="259" height="40" as="alternateBounds" />
          </mxGeometry>
        </mxCell>
        <mxCell id="mHg_K5r4MnzTMmaqs2IJ-79" value="eidls" style="shape=partialRectangle;html=1;whiteSpace=wrap;connectable=0;strokeColor=inherit;overflow=hidden;fillColor=none;top=0;left=0;bottom=0;right=0;pointerEvents=1;" vertex="1" parent="mHg_K5r4MnzTMmaqs2IJ-75">
          <mxGeometry x="469" width="99" height="40" as="geometry">
            <mxRectangle width="99" height="40" as="alternateBounds" />
          </mxGeometry>
        </mxCell>
        <mxCell id="mHg_K5r4MnzTMmaqs2IJ-80" value="&lt;span style=&quot;font-size: 16px;&quot;&gt;2024/08/24&lt;/span&gt;&lt;div style=&quot;font-size: 16px;&quot;&gt;12:40:45&lt;/div&gt;" style="shape=partialRectangle;html=1;whiteSpace=wrap;connectable=0;strokeColor=inherit;overflow=hidden;fillColor=none;top=0;left=0;bottom=0;right=0;pointerEvents=1;" vertex="1" parent="mHg_K5r4MnzTMmaqs2IJ-75">
          <mxGeometry x="568" width="142" height="40" as="geometry">
            <mxRectangle width="142" height="40" as="alternateBounds" />
          </mxGeometry>
        </mxCell>
        <mxCell id="mHg_K5r4MnzTMmaqs2IJ-91" value="&lt;span style=&quot;font-size: 16px;&quot;&gt;2024/08/24&lt;/span&gt;&lt;div style=&quot;font-size: 16px;&quot;&gt;12:20:33&lt;/div&gt;" style="shape=partialRectangle;html=1;whiteSpace=wrap;connectable=0;strokeColor=inherit;overflow=hidden;fillColor=none;top=0;left=0;bottom=0;right=0;pointerEvents=1;" vertex="1" parent="mHg_K5r4MnzTMmaqs2IJ-75">
          <mxGeometry x="710" width="142" height="40" as="geometry">
            <mxRectangle width="142" height="40" as="alternateBounds" />
          </mxGeometry>
        </mxCell>
        <mxCell id="mHg_K5r4MnzTMmaqs2IJ-34" value="" style="shape=table;startSize=0;container=1;collapsible=0;childLayout=tableLayout;fontSize=16;" vertex="1" parent="1">
          <mxGeometry x="-300" y="790" width="470" height="113" as="geometry" />
        </mxCell>
        <mxCell id="mHg_K5r4MnzTMmaqs2IJ-35" value="" style="shape=tableRow;horizontal=0;startSize=0;swimlaneHead=0;swimlaneBody=0;strokeColor=inherit;top=0;left=0;bottom=0;right=0;collapsible=0;dropTarget=0;fillColor=none;points=[[0,0.5],[1,0.5]];portConstraint=eastwest;fontSize=16;" vertex="1" parent="mHg_K5r4MnzTMmaqs2IJ-34">
          <mxGeometry width="470" height="33" as="geometry" />
        </mxCell>
        <mxCell id="mHg_K5r4MnzTMmaqs2IJ-36" value="ID" style="shape=partialRectangle;html=1;whiteSpace=wrap;connectable=0;strokeColor=inherit;overflow=hidden;fillColor=none;top=0;left=0;bottom=0;right=0;pointerEvents=1;fontSize=16;" vertex="1" parent="mHg_K5r4MnzTMmaqs2IJ-35">
          <mxGeometry width="92" height="33" as="geometry">
            <mxRectangle width="92" height="33" as="alternateBounds" />
          </mxGeometry>
        </mxCell>
        <mxCell id="mHg_K5r4MnzTMmaqs2IJ-37" value="name" style="shape=partialRectangle;html=1;whiteSpace=wrap;connectable=0;strokeColor=inherit;overflow=hidden;fillColor=none;top=0;left=0;bottom=0;right=0;pointerEvents=1;fontSize=16;" vertex="1" parent="mHg_K5r4MnzTMmaqs2IJ-35">
          <mxGeometry x="92" width="60" height="33" as="geometry">
            <mxRectangle width="60" height="33" as="alternateBounds" />
          </mxGeometry>
        </mxCell>
        <mxCell id="mHg_K5r4MnzTMmaqs2IJ-38" value="password" style="shape=partialRectangle;html=1;whiteSpace=wrap;connectable=0;strokeColor=inherit;overflow=hidden;fillColor=none;top=0;left=0;bottom=0;right=0;pointerEvents=1;fontSize=16;" vertex="1" parent="mHg_K5r4MnzTMmaqs2IJ-35">
          <mxGeometry x="152" width="102" height="33" as="geometry">
            <mxRectangle width="102" height="33" as="alternateBounds" />
          </mxGeometry>
        </mxCell>
        <mxCell id="mHg_K5r4MnzTMmaqs2IJ-81" value="email" style="shape=partialRectangle;html=1;whiteSpace=wrap;connectable=0;strokeColor=inherit;overflow=hidden;fillColor=none;top=0;left=0;bottom=0;right=0;pointerEvents=1;fontSize=16;" vertex="1" parent="mHg_K5r4MnzTMmaqs2IJ-35">
          <mxGeometry x="254" width="126" height="33" as="geometry">
            <mxRectangle width="126" height="33" as="alternateBounds" />
          </mxGeometry>
        </mxCell>
        <mxCell id="mHg_K5r4MnzTMmaqs2IJ-84" value="join_at" style="shape=partialRectangle;html=1;whiteSpace=wrap;connectable=0;strokeColor=inherit;overflow=hidden;fillColor=none;top=0;left=0;bottom=0;right=0;pointerEvents=1;fontSize=16;" vertex="1" parent="mHg_K5r4MnzTMmaqs2IJ-35">
          <mxGeometry x="380" width="90" height="33" as="geometry">
            <mxRectangle width="90" height="33" as="alternateBounds" />
          </mxGeometry>
        </mxCell>
        <mxCell id="mHg_K5r4MnzTMmaqs2IJ-39" value="" style="shape=tableRow;horizontal=0;startSize=0;swimlaneHead=0;swimlaneBody=0;strokeColor=inherit;top=0;left=0;bottom=0;right=0;collapsible=0;dropTarget=0;fillColor=none;points=[[0,0.5],[1,0.5]];portConstraint=eastwest;fontSize=16;" vertex="1" parent="mHg_K5r4MnzTMmaqs2IJ-34">
          <mxGeometry y="33" width="470" height="40" as="geometry" />
        </mxCell>
        <mxCell id="mHg_K5r4MnzTMmaqs2IJ-40" value="admin" style="shape=partialRectangle;html=1;whiteSpace=wrap;connectable=0;strokeColor=inherit;overflow=hidden;fillColor=none;top=0;left=0;bottom=0;right=0;pointerEvents=1;fontSize=16;" vertex="1" parent="mHg_K5r4MnzTMmaqs2IJ-39">
          <mxGeometry width="92" height="40" as="geometry">
            <mxRectangle width="92" height="40" as="alternateBounds" />
          </mxGeometry>
        </mxCell>
        <mxCell id="mHg_K5r4MnzTMmaqs2IJ-41" value="홍길동" style="shape=partialRectangle;html=1;whiteSpace=wrap;connectable=0;strokeColor=inherit;overflow=hidden;fillColor=none;top=0;left=0;bottom=0;right=0;pointerEvents=1;fontSize=16;" vertex="1" parent="mHg_K5r4MnzTMmaqs2IJ-39">
          <mxGeometry x="92" width="60" height="40" as="geometry">
            <mxRectangle width="60" height="40" as="alternateBounds" />
          </mxGeometry>
        </mxCell>
        <mxCell id="mHg_K5r4MnzTMmaqs2IJ-42" value="iedid123" style="shape=partialRectangle;html=1;whiteSpace=wrap;connectable=0;strokeColor=inherit;overflow=hidden;fillColor=none;top=0;left=0;bottom=0;right=0;pointerEvents=1;fontSize=16;" vertex="1" parent="mHg_K5r4MnzTMmaqs2IJ-39">
          <mxGeometry x="152" width="102" height="40" as="geometry">
            <mxRectangle width="102" height="40" as="alternateBounds" />
          </mxGeometry>
        </mxCell>
        <mxCell id="mHg_K5r4MnzTMmaqs2IJ-82" value="ridk@iels.com" style="shape=partialRectangle;html=1;whiteSpace=wrap;connectable=0;strokeColor=inherit;overflow=hidden;fillColor=none;top=0;left=0;bottom=0;right=0;pointerEvents=1;fontSize=16;" vertex="1" parent="mHg_K5r4MnzTMmaqs2IJ-39">
          <mxGeometry x="254" width="126" height="40" as="geometry">
            <mxRectangle width="126" height="40" as="alternateBounds" />
          </mxGeometry>
        </mxCell>
        <mxCell id="mHg_K5r4MnzTMmaqs2IJ-85" value="2024/08/24&lt;div&gt;12:20:33&lt;/div&gt;" style="shape=partialRectangle;html=1;whiteSpace=wrap;connectable=0;strokeColor=inherit;overflow=hidden;fillColor=none;top=0;left=0;bottom=0;right=0;pointerEvents=1;fontSize=16;" vertex="1" parent="mHg_K5r4MnzTMmaqs2IJ-39">
          <mxGeometry x="380" width="90" height="40" as="geometry">
            <mxRectangle width="90" height="40" as="alternateBounds" />
          </mxGeometry>
        </mxCell>
        <mxCell id="mHg_K5r4MnzTMmaqs2IJ-43" value="" style="shape=tableRow;horizontal=0;startSize=0;swimlaneHead=0;swimlaneBody=0;strokeColor=inherit;top=0;left=0;bottom=0;right=0;collapsible=0;dropTarget=0;fillColor=none;points=[[0,0.5],[1,0.5]];portConstraint=eastwest;fontSize=16;" vertex="1" parent="mHg_K5r4MnzTMmaqs2IJ-34">
          <mxGeometry y="73" width="470" height="40" as="geometry" />
        </mxCell>
        <mxCell id="mHg_K5r4MnzTMmaqs2IJ-44" value="super123" style="shape=partialRectangle;html=1;whiteSpace=wrap;connectable=0;strokeColor=inherit;overflow=hidden;fillColor=none;top=0;left=0;bottom=0;right=0;pointerEvents=1;fontSize=16;" vertex="1" parent="mHg_K5r4MnzTMmaqs2IJ-43">
          <mxGeometry width="92" height="40" as="geometry">
            <mxRectangle width="92" height="40" as="alternateBounds" />
          </mxGeometry>
        </mxCell>
        <mxCell id="mHg_K5r4MnzTMmaqs2IJ-45" value="이순신" style="shape=partialRectangle;html=1;whiteSpace=wrap;connectable=0;strokeColor=inherit;overflow=hidden;fillColor=none;top=0;left=0;bottom=0;right=0;pointerEvents=1;fontSize=16;" vertex="1" parent="mHg_K5r4MnzTMmaqs2IJ-43">
          <mxGeometry x="92" width="60" height="40" as="geometry">
            <mxRectangle width="60" height="40" as="alternateBounds" />
          </mxGeometry>
        </mxCell>
        <mxCell id="mHg_K5r4MnzTMmaqs2IJ-46" value="eids1232" style="shape=partialRectangle;html=1;whiteSpace=wrap;connectable=0;strokeColor=inherit;overflow=hidden;fillColor=none;top=0;left=0;bottom=0;right=0;pointerEvents=1;fontSize=16;" vertex="1" parent="mHg_K5r4MnzTMmaqs2IJ-43">
          <mxGeometry x="152" width="102" height="40" as="geometry">
            <mxRectangle width="102" height="40" as="alternateBounds" />
          </mxGeometry>
        </mxCell>
        <mxCell id="mHg_K5r4MnzTMmaqs2IJ-83" value="idnel@iedl.net" style="shape=partialRectangle;html=1;whiteSpace=wrap;connectable=0;strokeColor=inherit;overflow=hidden;fillColor=none;top=0;left=0;bottom=0;right=0;pointerEvents=1;fontSize=16;" vertex="1" parent="mHg_K5r4MnzTMmaqs2IJ-43">
          <mxGeometry x="254" width="126" height="40" as="geometry">
            <mxRectangle width="126" height="40" as="alternateBounds" />
          </mxGeometry>
        </mxCell>
        <mxCell id="mHg_K5r4MnzTMmaqs2IJ-86" value="2024/06/14&lt;div&gt;17:33:10&lt;/div&gt;" style="shape=partialRectangle;html=1;whiteSpace=wrap;connectable=0;strokeColor=inherit;overflow=hidden;fillColor=none;top=0;left=0;bottom=0;right=0;pointerEvents=1;fontSize=16;" vertex="1" parent="mHg_K5r4MnzTMmaqs2IJ-43">
          <mxGeometry x="380" width="90" height="40" as="geometry">
            <mxRectangle width="90" height="40" as="alternateBounds" />
          </mxGeometry>
        </mxCell>
        <mxCell id="mHg_K5r4MnzTMmaqs2IJ-88" value="&lt;font style=&quot;font-size: 15px;&quot;&gt;CREATE TABLE USERS (&lt;/font&gt;&lt;div style=&quot;font-size: 15px;&quot;&gt;&lt;font style=&quot;font-size: 15px;&quot;&gt;ID VARCHAR2(20) PRIMARY KEY,&lt;/font&gt;&lt;/div&gt;&lt;div style=&quot;font-size: 15px;&quot;&gt;&lt;font style=&quot;font-size: 15px;&quot;&gt;name VARCHAR2(20) UNIQUE,&lt;/font&gt;&lt;/div&gt;&lt;div style=&quot;font-size: 15px;&quot;&gt;&lt;font style=&quot;font-size: 15px;&quot;&gt;pwd VARCHAR2(30) NOT NULL,&lt;/font&gt;&lt;/div&gt;&lt;div style=&quot;font-size: 15px;&quot;&gt;&lt;font style=&quot;font-size: 15px;&quot;&gt;email&amp;nbsp;&lt;span style=&quot;background-color: initial;&quot;&gt;VARCHAR2(50),&lt;/span&gt;&lt;/font&gt;&lt;/div&gt;&lt;div style=&quot;font-size: 15px;&quot;&gt;&lt;span style=&quot;background-color: initial;&quot;&gt;&lt;font style=&quot;font-size: 15px;&quot;&gt;join_at DATE DEFAULT SYSDATE&lt;/font&gt;&lt;/span&gt;&lt;/div&gt;&lt;div style=&quot;font-size: 15px;&quot;&gt;&lt;span style=&quot;background-color: initial;&quot;&gt;)&lt;/span&gt;&lt;/div&gt;" style="rounded=0;whiteSpace=wrap;html=1;" vertex="1" parent="1">
          <mxGeometry x="-300" y="910" width="470" height="260" as="geometry" />
        </mxCell>
        <mxCell id="mHg_K5r4MnzTMmaqs2IJ-92" value="&lt;div style=&quot;font-size: 16px;&quot;&gt;&lt;span style=&quot;color: rgb(0, 0, 0); font-family: Helvetica; font-style: normal; font-variant-ligatures: normal; font-variant-caps: normal; font-weight: 400; letter-spacing: normal; orphans: 2; text-indent: 0px; text-transform: none; widows: 2; word-spacing: 0px; -webkit-text-stroke-width: 0px; white-space: normal; background-color: rgb(251, 251, 251); text-decoration-thickness: initial; text-decoration-style: initial; text-decoration-color: initial; float: none; display: inline !important;&quot;&gt;&lt;font style=&quot;font-size: 16px;&quot;&gt;&lt;br&gt;&lt;/font&gt;&lt;/span&gt;&lt;/div&gt;&lt;span style=&quot;color: rgb(0, 0, 0); font-family: Helvetica; font-style: normal; font-variant-ligatures: normal; font-variant-caps: normal; font-weight: 400; letter-spacing: normal; orphans: 2; text-indent: 0px; text-transform: none; widows: 2; word-spacing: 0px; -webkit-text-stroke-width: 0px; white-space: normal; background-color: rgb(251, 251, 251); text-decoration-thickness: initial; text-decoration-style: initial; text-decoration-color: initial; float: none; display: inline !important; font-size: 16px;&quot;&gt;&lt;font style=&quot;font-size: 16px;&quot;&gt;&lt;div style=&quot;&quot;&gt;&lt;span style=&quot;color: rgb(0, 0, 0); font-family: Helvetica; font-style: normal; font-variant-ligatures: normal; font-variant-caps: normal; font-weight: 400; letter-spacing: normal; orphans: 2; text-indent: 0px; text-transform: none; widows: 2; word-spacing: 0px; -webkit-text-stroke-width: 0px; white-space: normal; background-color: rgb(251, 251, 251); text-decoration-thickness: initial; text-decoration-style: initial; text-decoration-color: initial; float: none; display: inline !important;&quot;&gt;&lt;br&gt;&lt;/span&gt;&lt;/div&gt;&lt;font style=&quot;font-size: 16px;&quot;&gt;CREATE TABLE memos(&lt;/font&gt;&lt;/font&gt;&lt;/span&gt;&lt;div style=&quot;font-size: 16px;&quot;&gt;&lt;font style=&quot;font-size: 16px;&quot;&gt;&lt;br&gt;&lt;/font&gt;&lt;div style=&quot;text-align: left; forced-color-adjust: none; color: rgb(0, 0, 0); font-family: Helvetica; font-style: normal; font-variant-ligatures: normal; font-variant-caps: normal; font-weight: 400; letter-spacing: normal; orphans: 2; text-indent: 0px; text-transform: none; widows: 2; word-spacing: 0px; -webkit-text-stroke-width: 0px; white-space: normal; background-color: rgb(251, 251, 251); text-decoration-thickness: initial; text-decoration-style: initial; text-decoration-color: initial;&quot;&gt;&lt;font style=&quot;font-size: 16px;&quot;&gt;id NUMBER(4)&amp;nbsp; PRIMARY KEY,&lt;/font&gt;&lt;/div&gt;&lt;div style=&quot;text-align: left; forced-color-adjust: none; color: rgb(0, 0, 0); font-family: Helvetica; font-style: normal; font-variant-ligatures: normal; font-variant-caps: normal; font-weight: 400; letter-spacing: normal; orphans: 2; text-indent: 0px; text-transform: none; widows: 2; word-spacing: 0px; -webkit-text-stroke-width: 0px; white-space: normal; background-color: rgb(251, 251, 251); text-decoration-thickness: initial; text-decoration-style: initial; text-decoration-color: initial;&quot;&gt;&lt;font style=&quot;font-size: 16px;&quot;&gt;title&amp;nbsp;&lt;/font&gt;&lt;span style=&quot;background-color: initial;&quot;&gt;VARCHAR2(40) NOT NULL,&lt;/span&gt;&lt;/div&gt;&lt;div style=&quot;text-align: left; forced-color-adjust: none; color: rgb(0, 0, 0); font-family: Helvetica; font-style: normal; font-variant-ligatures: normal; font-variant-caps: normal; font-weight: 400; letter-spacing: normal; orphans: 2; text-indent: 0px; text-transform: none; widows: 2; word-spacing: 0px; -webkit-text-stroke-width: 0px; white-space: normal; background-color: rgb(251, 251, 251); text-decoration-thickness: initial; text-decoration-style: initial; text-decoration-color: initial;&quot;&gt;&lt;span style=&quot;background-color: initial;&quot;&gt;content&amp;nbsp;&lt;/span&gt;&lt;span style=&quot;background-color: initial;&quot;&gt;VARCHAR2(100) NOT NULL,&lt;/span&gt;&lt;/div&gt;&lt;div style=&quot;text-align: left; forced-color-adjust: none; color: rgb(0, 0, 0); font-family: Helvetica; font-style: normal; font-variant-ligatures: normal; font-variant-caps: normal; font-weight: 400; letter-spacing: normal; orphans: 2; text-indent: 0px; text-transform: none; widows: 2; word-spacing: 0px; -webkit-text-stroke-width: 0px; white-space: normal; background-color: rgb(251, 251, 251); text-decoration-thickness: initial; text-decoration-style: initial; text-decoration-color: initial;&quot;&gt;&lt;span style=&quot;background-color: initial;&quot;&gt;waier VARCHAR2(20) REFERRNCES users(id),&amp;nbsp;&amp;nbsp;&lt;/span&gt;&lt;span style=&quot;background-color: initial;&quot;&gt;&amp;nbsp;&lt;/span&gt;&lt;/div&gt;&lt;div style=&quot;text-align: left; forced-color-adjust: none; color: rgb(0, 0, 0); font-family: Helvetica; font-style: normal; font-variant-ligatures: normal; font-variant-caps: normal; font-weight: 400; letter-spacing: normal; orphans: 2; text-indent: 0px; text-transform: none; widows: 2; word-spacing: 0px; -webkit-text-stroke-width: 0px; white-space: normal; background-color: rgb(251, 251, 251); text-decoration-thickness: initial; text-decoration-style: initial; text-decoration-color: initial;&quot;&gt;writer_at DATEDEFAULT SYSDATE&lt;/div&gt;&lt;div style=&quot;text-align: left; forced-color-adjust: none; color: rgb(0, 0, 0); font-family: Helvetica; font-style: normal; font-variant-ligatures: normal; font-variant-caps: normal; font-weight: 400; letter-spacing: normal; orphans: 2; text-indent: 0px; text-transform: none; widows: 2; word-spacing: 0px; -webkit-text-stroke-width: 0px; white-space: normal; background-color: rgb(251, 251, 251); text-decoration-thickness: initial; text-decoration-style: initial; text-decoration-color: initial;&quot;&gt;alarm_at DAFAULT SYSDATE&lt;/div&gt;&lt;div style=&quot;text-align: left; forced-color-adjust: none; color: rgb(0, 0, 0); font-family: Helvetica; font-style: normal; font-variant-ligatures: normal; font-variant-caps: normal; font-weight: 400; letter-spacing: normal; orphans: 2; text-indent: 0px; text-transform: none; widows: 2; word-spacing: 0px; -webkit-text-stroke-width: 0px; white-space: normal; background-color: rgb(251, 251, 251); text-decoration-thickness: initial; text-decoration-style: initial; text-decoration-color: initial;&quot;&gt;)&lt;/div&gt;&lt;/div&gt;" style="text;whiteSpace=wrap;html=1;align=center;strokeColor=default;" vertex="1" parent="1">
          <mxGeometry x="340" y="930" width="400" height="240" as="geometry" />
        </mxCell>
        <mxCell id="mHg_K5r4MnzTMmaqs2IJ-97" value="데이터 모델링" style="rounded=0;whiteSpace=wrap;html=1;" vertex="1" parent="1">
          <mxGeometry x="1590" width="440" height="60" as="geometry" />
        </mxCell>
        <mxCell id="mHg_K5r4MnzTMmaqs2IJ-98" value="&lt;div style=&quot;text-align: left;&quot;&gt;&lt;span style=&quot;font-size: 20px;&quot;&gt;&lt;b&gt;게시판&lt;/b&gt;&lt;/span&gt;&lt;/div&gt;&lt;div style=&quot;text-align: left;&quot;&gt;&lt;font style=&quot;font-size: 15px;&quot;&gt;블로그나 웹사이트에서 커뮤니케이션을 위한 게시판&lt;/font&gt;&lt;/div&gt;&lt;div&gt;&lt;font style=&quot;font-size: 15px;&quot;&gt;&lt;br&gt;&lt;/font&gt;&lt;/div&gt;&lt;div&gt;&lt;font style=&quot;font-size: 15px;&quot;&gt;&lt;br&gt;&lt;/font&gt;&lt;/div&gt;&lt;div&gt;&lt;font style=&quot;font-size: 15px;&quot;&gt;&lt;br&gt;&lt;/font&gt;&lt;/div&gt;&lt;div style=&quot;text-align: left;&quot;&gt;&lt;span style=&quot;font-size: 20px;&quot;&gt;&lt;b&gt;주요개념/용어&lt;/b&gt;&lt;/span&gt;&lt;/div&gt;&lt;div style=&quot;text-align: left;&quot;&gt;&lt;font style=&quot;font-size: 15px;&quot;&gt;&lt;span style=&quot;background-color: initial;&quot;&gt;블로그나 웹사이트에서 커뮤니케이션을 위한 게시판&lt;/span&gt;&lt;/font&gt;&lt;/div&gt;&lt;div style=&quot;text-align: left;&quot;&gt;&lt;font style=&quot;font-size: 15px;&quot;&gt;1. 게시글 : 게시글은 회원이 작성할수 있는 기본 컨텐츠이다&lt;/font&gt;&lt;/div&gt;&lt;div style=&quot;text-align: left;&quot;&gt;&lt;font style=&quot;font-size: 15px;&quot;&gt;2. 게시판 : 게시글의 대부분, 일종의 카테고리이다.&amp;nbsp;&lt;/font&gt;&lt;/div&gt;" style="text;html=1;align=center;verticalAlign=middle;resizable=0;points=[];autosize=1;strokeColor=none;fillColor=none;" vertex="1" parent="1">
          <mxGeometry x="1615" y="80" width="420" height="190" as="geometry" />
        </mxCell>
        <mxCell id="mHg_K5r4MnzTMmaqs2IJ-106" value="카테고리" style="rounded=0;whiteSpace=wrap;html=1;fillColor=#f8cecc;strokeColor=#b85450;" vertex="1" parent="1">
          <mxGeometry x="1970" y="880" width="120" height="60" as="geometry" />
        </mxCell>
        <mxCell id="mHg_K5r4MnzTMmaqs2IJ-109" value="게시판" style="rounded=0;whiteSpace=wrap;html=1;fillColor=#fff2cc;strokeColor=#d6b656;" vertex="1" parent="1">
          <mxGeometry x="1986" y="405" width="120" height="60" as="geometry" />
        </mxCell>
        <mxCell id="mHg_K5r4MnzTMmaqs2IJ-118" value="작성일" style="ellipse;whiteSpace=wrap;html=1;" vertex="1" parent="1">
          <mxGeometry x="1570" y="550" width="120" height="80" as="geometry" />
        </mxCell>
        <mxCell id="mHg_K5r4MnzTMmaqs2IJ-119" value="조회수" style="ellipse;whiteSpace=wrap;html=1;" vertex="1" parent="1">
          <mxGeometry x="1780" y="610" width="120" height="80" as="geometry" />
        </mxCell>
        <mxCell id="mHg_K5r4MnzTMmaqs2IJ-129" value="아이디" style="ellipse;whiteSpace=wrap;html=1;" vertex="1" parent="1">
          <mxGeometry x="1700" y="290" width="120" height="80" as="geometry" />
        </mxCell>
        <mxCell id="mHg_K5r4MnzTMmaqs2IJ-130" value="카테고리" style="ellipse;whiteSpace=wrap;html=1;" vertex="1" parent="1">
          <mxGeometry x="1560" y="335" width="120" height="80" as="geometry" />
        </mxCell>
        <mxCell id="mHg_K5r4MnzTMmaqs2IJ-131" value="글제목" style="ellipse;whiteSpace=wrap;html=1;" vertex="1" parent="1">
          <mxGeometry x="1560" y="450" width="120" height="80" as="geometry" />
        </mxCell>
        <mxCell id="mHg_K5r4MnzTMmaqs2IJ-132" value="게시글" style="rounded=0;whiteSpace=wrap;html=1;fillColor=#dae8fc;strokeColor=#6c8ebf;" vertex="1" parent="1">
          <mxGeometry x="1700" y="400" width="120" height="65" as="geometry" />
        </mxCell>
        <mxCell id="mHg_K5r4MnzTMmaqs2IJ-133" value="내용" style="ellipse;whiteSpace=wrap;html=1;" vertex="1" parent="1">
          <mxGeometry x="1700" y="499.5" width="120" height="80" as="geometry" />
        </mxCell>
        <mxCell id="mHg_K5r4MnzTMmaqs2IJ-134" value="포함" style="rhombus;whiteSpace=wrap;html=1;fillColor=#f5f5f5;fontColor=#333333;strokeColor=#666666;" vertex="1" parent="1">
          <mxGeometry x="1870" y="395" width="80" height="80" as="geometry" />
        </mxCell>
        <mxCell id="mHg_K5r4MnzTMmaqs2IJ-135" value="작성자" style="ellipse;whiteSpace=wrap;html=1;" vertex="1" parent="1">
          <mxGeometry x="1860" y="495" width="120" height="80" as="geometry" />
        </mxCell>
        <mxCell id="mHg_K5r4MnzTMmaqs2IJ-136" value="등록일자" style="ellipse;whiteSpace=wrap;html=1;" vertex="1" parent="1">
          <mxGeometry x="1860" y="806.5" width="120" height="80" as="geometry" />
        </mxCell>
        <mxCell id="mHg_K5r4MnzTMmaqs2IJ-137" value="게시판아이디" style="ellipse;whiteSpace=wrap;html=1;" vertex="1" parent="1">
          <mxGeometry x="1850" y="290" width="120" height="80" as="geometry" />
        </mxCell>
        <mxCell id="mHg_K5r4MnzTMmaqs2IJ-138" value="아이디" style="ellipse;whiteSpace=wrap;html=1;" vertex="1" parent="1">
          <mxGeometry x="1986" y="750" width="120" height="80" as="geometry" />
        </mxCell>
        <mxCell id="mHg_K5r4MnzTMmaqs2IJ-139" value="카테고리명" style="ellipse;whiteSpace=wrap;html=1;" vertex="1" parent="1">
          <mxGeometry x="2120" y="800" width="120" height="80" as="geometry" />
        </mxCell>
        <mxCell id="mHg_K5r4MnzTMmaqs2IJ-140" value="아이디" style="ellipse;whiteSpace=wrap;html=1;" vertex="1" parent="1">
          <mxGeometry x="2050" y="305" width="120" height="80" as="geometry" />
        </mxCell>
        <mxCell id="mHg_K5r4MnzTMmaqs2IJ-141" value="생성일" style="ellipse;whiteSpace=wrap;html=1;" vertex="1" parent="1">
          <mxGeometry x="2130" y="385" width="120" height="80" as="geometry" />
        </mxCell>
        <mxCell id="mHg_K5r4MnzTMmaqs2IJ-142" value="관리자" style="ellipse;whiteSpace=wrap;html=1;" vertex="1" parent="1">
          <mxGeometry x="2068" y="480" width="120" height="80" as="geometry" />
        </mxCell>
        <mxCell id="mHg_K5r4MnzTMmaqs2IJ-345" value="post" style="shape=table;startSize=30;container=1;collapsible=1;childLayout=tableLayout;fixedRows=1;rowLines=0;fontStyle=1;align=center;resizeLast=1;html=1;fillColor=#fff2cc;strokeColor=#d6b656;" vertex="1" parent="1">
          <mxGeometry x="1000" y="920" width="160" height="260" as="geometry" />
        </mxCell>
        <mxCell id="mHg_K5r4MnzTMmaqs2IJ-409" style="shape=tableRow;horizontal=0;startSize=0;swimlaneHead=0;swimlaneBody=0;fillColor=none;collapsible=0;dropTarget=0;points=[[0,0.5],[1,0.5]];portConstraint=eastwest;top=0;left=0;right=0;bottom=1;" vertex="1" parent="mHg_K5r4MnzTMmaqs2IJ-345">
          <mxGeometry y="30" width="160" height="30" as="geometry" />
        </mxCell>
        <mxCell id="mHg_K5r4MnzTMmaqs2IJ-410" value="pk" style="shape=partialRectangle;connectable=0;fillColor=none;top=0;left=0;bottom=0;right=0;fontStyle=1;overflow=hidden;whiteSpace=wrap;html=1;" vertex="1" parent="mHg_K5r4MnzTMmaqs2IJ-409">
          <mxGeometry width="30" height="30" as="geometry">
            <mxRectangle width="30" height="30" as="alternateBounds" />
          </mxGeometry>
        </mxCell>
        <mxCell id="mHg_K5r4MnzTMmaqs2IJ-411" value="post_id" style="shape=partialRectangle;connectable=0;fillColor=none;top=0;left=0;bottom=0;right=0;align=left;spacingLeft=6;fontStyle=5;overflow=hidden;whiteSpace=wrap;html=1;" vertex="1" parent="mHg_K5r4MnzTMmaqs2IJ-409">
          <mxGeometry x="30" width="130" height="30" as="geometry">
            <mxRectangle width="130" height="30" as="alternateBounds" />
          </mxGeometry>
        </mxCell>
        <mxCell id="mHg_K5r4MnzTMmaqs2IJ-406" style="shape=tableRow;horizontal=0;startSize=0;swimlaneHead=0;swimlaneBody=0;fillColor=none;collapsible=0;dropTarget=0;points=[[0,0.5],[1,0.5]];portConstraint=eastwest;top=0;left=0;right=0;bottom=1;" vertex="1" parent="mHg_K5r4MnzTMmaqs2IJ-345">
          <mxGeometry y="60" width="160" height="30" as="geometry" />
        </mxCell>
        <mxCell id="mHg_K5r4MnzTMmaqs2IJ-407" value="fk" style="shape=partialRectangle;connectable=0;fillColor=none;top=0;left=0;bottom=0;right=0;fontStyle=1;overflow=hidden;whiteSpace=wrap;html=1;" vertex="1" parent="mHg_K5r4MnzTMmaqs2IJ-406">
          <mxGeometry width="30" height="30" as="geometry">
            <mxRectangle width="30" height="30" as="alternateBounds" />
          </mxGeometry>
        </mxCell>
        <mxCell id="mHg_K5r4MnzTMmaqs2IJ-408" value="witer_id" style="shape=partialRectangle;connectable=0;fillColor=none;top=0;left=0;bottom=0;right=0;align=left;spacingLeft=6;fontStyle=5;overflow=hidden;whiteSpace=wrap;html=1;" vertex="1" parent="mHg_K5r4MnzTMmaqs2IJ-406">
          <mxGeometry x="30" width="130" height="30" as="geometry">
            <mxRectangle width="130" height="30" as="alternateBounds" />
          </mxGeometry>
        </mxCell>
        <mxCell id="mHg_K5r4MnzTMmaqs2IJ-403" style="shape=tableRow;horizontal=0;startSize=0;swimlaneHead=0;swimlaneBody=0;fillColor=none;collapsible=0;dropTarget=0;points=[[0,0.5],[1,0.5]];portConstraint=eastwest;top=0;left=0;right=0;bottom=1;" vertex="1" parent="mHg_K5r4MnzTMmaqs2IJ-345">
          <mxGeometry y="90" width="160" height="30" as="geometry" />
        </mxCell>
        <mxCell id="mHg_K5r4MnzTMmaqs2IJ-404" value="uk" style="shape=partialRectangle;connectable=0;fillColor=none;top=0;left=0;bottom=0;right=0;fontStyle=1;overflow=hidden;whiteSpace=wrap;html=1;" vertex="1" parent="mHg_K5r4MnzTMmaqs2IJ-403">
          <mxGeometry width="30" height="30" as="geometry">
            <mxRectangle width="30" height="30" as="alternateBounds" />
          </mxGeometry>
        </mxCell>
        <mxCell id="mHg_K5r4MnzTMmaqs2IJ-405" value="conrfent" style="shape=partialRectangle;connectable=0;fillColor=none;top=0;left=0;bottom=0;right=0;align=left;spacingLeft=6;fontStyle=5;overflow=hidden;whiteSpace=wrap;html=1;" vertex="1" parent="mHg_K5r4MnzTMmaqs2IJ-403">
          <mxGeometry x="30" width="130" height="30" as="geometry">
            <mxRectangle width="130" height="30" as="alternateBounds" />
          </mxGeometry>
        </mxCell>
        <mxCell id="mHg_K5r4MnzTMmaqs2IJ-400" style="shape=tableRow;horizontal=0;startSize=0;swimlaneHead=0;swimlaneBody=0;fillColor=none;collapsible=0;dropTarget=0;points=[[0,0.5],[1,0.5]];portConstraint=eastwest;top=0;left=0;right=0;bottom=1;" vertex="1" parent="mHg_K5r4MnzTMmaqs2IJ-345">
          <mxGeometry y="120" width="160" height="30" as="geometry" />
        </mxCell>
        <mxCell id="mHg_K5r4MnzTMmaqs2IJ-401" style="shape=partialRectangle;connectable=0;fillColor=none;top=0;left=0;bottom=0;right=0;fontStyle=1;overflow=hidden;whiteSpace=wrap;html=1;" vertex="1" parent="mHg_K5r4MnzTMmaqs2IJ-400">
          <mxGeometry width="30" height="30" as="geometry">
            <mxRectangle width="30" height="30" as="alternateBounds" />
          </mxGeometry>
        </mxCell>
        <mxCell id="mHg_K5r4MnzTMmaqs2IJ-402" value="created_at" style="shape=partialRectangle;connectable=0;fillColor=none;top=0;left=0;bottom=0;right=0;align=left;spacingLeft=6;fontStyle=5;overflow=hidden;whiteSpace=wrap;html=1;" vertex="1" parent="mHg_K5r4MnzTMmaqs2IJ-400">
          <mxGeometry x="30" width="130" height="30" as="geometry">
            <mxRectangle width="130" height="30" as="alternateBounds" />
          </mxGeometry>
        </mxCell>
        <mxCell id="mHg_K5r4MnzTMmaqs2IJ-397" style="shape=tableRow;horizontal=0;startSize=0;swimlaneHead=0;swimlaneBody=0;fillColor=none;collapsible=0;dropTarget=0;points=[[0,0.5],[1,0.5]];portConstraint=eastwest;top=0;left=0;right=0;bottom=1;" vertex="1" parent="mHg_K5r4MnzTMmaqs2IJ-345">
          <mxGeometry y="150" width="160" height="30" as="geometry" />
        </mxCell>
        <mxCell id="mHg_K5r4MnzTMmaqs2IJ-398" style="shape=partialRectangle;connectable=0;fillColor=none;top=0;left=0;bottom=0;right=0;fontStyle=1;overflow=hidden;whiteSpace=wrap;html=1;" vertex="1" parent="mHg_K5r4MnzTMmaqs2IJ-397">
          <mxGeometry width="30" height="30" as="geometry">
            <mxRectangle width="30" height="30" as="alternateBounds" />
          </mxGeometry>
        </mxCell>
        <mxCell id="mHg_K5r4MnzTMmaqs2IJ-399" value="updated_at" style="shape=partialRectangle;connectable=0;fillColor=none;top=0;left=0;bottom=0;right=0;align=left;spacingLeft=6;fontStyle=5;overflow=hidden;whiteSpace=wrap;html=1;" vertex="1" parent="mHg_K5r4MnzTMmaqs2IJ-397">
          <mxGeometry x="30" width="130" height="30" as="geometry">
            <mxRectangle width="130" height="30" as="alternateBounds" />
          </mxGeometry>
        </mxCell>
        <mxCell id="mHg_K5r4MnzTMmaqs2IJ-346" value="" style="shape=tableRow;horizontal=0;startSize=0;swimlaneHead=0;swimlaneBody=0;fillColor=none;collapsible=0;dropTarget=0;points=[[0,0.5],[1,0.5]];portConstraint=eastwest;top=0;left=0;right=0;bottom=1;" vertex="1" parent="mHg_K5r4MnzTMmaqs2IJ-345">
          <mxGeometry y="180" width="160" height="30" as="geometry" />
        </mxCell>
        <mxCell id="mHg_K5r4MnzTMmaqs2IJ-347" value="" style="shape=partialRectangle;connectable=0;fillColor=none;top=0;left=0;bottom=0;right=0;fontStyle=1;overflow=hidden;whiteSpace=wrap;html=1;" vertex="1" parent="mHg_K5r4MnzTMmaqs2IJ-346">
          <mxGeometry width="30" height="30" as="geometry">
            <mxRectangle width="30" height="30" as="alternateBounds" />
          </mxGeometry>
        </mxCell>
        <mxCell id="mHg_K5r4MnzTMmaqs2IJ-348" value="deleted_at" style="shape=partialRectangle;connectable=0;fillColor=none;top=0;left=0;bottom=0;right=0;align=left;spacingLeft=6;fontStyle=5;overflow=hidden;whiteSpace=wrap;html=1;" vertex="1" parent="mHg_K5r4MnzTMmaqs2IJ-346">
          <mxGeometry x="30" width="130" height="30" as="geometry">
            <mxRectangle width="130" height="30" as="alternateBounds" />
          </mxGeometry>
        </mxCell>
        <mxCell id="mHg_K5r4MnzTMmaqs2IJ-349" value="" style="shape=tableRow;horizontal=0;startSize=0;swimlaneHead=0;swimlaneBody=0;fillColor=none;collapsible=0;dropTarget=0;points=[[0,0.5],[1,0.5]];portConstraint=eastwest;top=0;left=0;right=0;bottom=0;" vertex="1" parent="mHg_K5r4MnzTMmaqs2IJ-345">
          <mxGeometry y="210" width="160" height="20" as="geometry" />
        </mxCell>
        <mxCell id="mHg_K5r4MnzTMmaqs2IJ-350" value="" style="shape=partialRectangle;connectable=0;fillColor=none;top=0;left=0;bottom=0;right=0;editable=1;overflow=hidden;whiteSpace=wrap;html=1;" vertex="1" parent="mHg_K5r4MnzTMmaqs2IJ-349">
          <mxGeometry width="30" height="20" as="geometry">
            <mxRectangle width="30" height="20" as="alternateBounds" />
          </mxGeometry>
        </mxCell>
        <mxCell id="mHg_K5r4MnzTMmaqs2IJ-351" value="views" style="shape=partialRectangle;connectable=0;fillColor=none;top=0;left=0;bottom=0;right=0;align=left;spacingLeft=6;overflow=hidden;whiteSpace=wrap;html=1;" vertex="1" parent="mHg_K5r4MnzTMmaqs2IJ-349">
          <mxGeometry x="30" width="130" height="20" as="geometry">
            <mxRectangle width="130" height="20" as="alternateBounds" />
          </mxGeometry>
        </mxCell>
        <mxCell id="mHg_K5r4MnzTMmaqs2IJ-352" value="" style="shape=tableRow;horizontal=0;startSize=0;swimlaneHead=0;swimlaneBody=0;fillColor=none;collapsible=0;dropTarget=0;points=[[0,0.5],[1,0.5]];portConstraint=eastwest;top=0;left=0;right=0;bottom=0;" vertex="1" parent="mHg_K5r4MnzTMmaqs2IJ-345">
          <mxGeometry y="230" width="160" height="30" as="geometry" />
        </mxCell>
        <mxCell id="mHg_K5r4MnzTMmaqs2IJ-353" value="" style="shape=partialRectangle;connectable=0;fillColor=none;top=0;left=0;bottom=0;right=0;editable=1;overflow=hidden;whiteSpace=wrap;html=1;" vertex="1" parent="mHg_K5r4MnzTMmaqs2IJ-352">
          <mxGeometry width="30" height="30" as="geometry">
            <mxRectangle width="30" height="30" as="alternateBounds" />
          </mxGeometry>
        </mxCell>
        <mxCell id="mHg_K5r4MnzTMmaqs2IJ-354" value="sig_id" style="shape=partialRectangle;connectable=0;fillColor=none;top=0;left=0;bottom=0;right=0;align=left;spacingLeft=6;overflow=hidden;whiteSpace=wrap;html=1;" vertex="1" parent="mHg_K5r4MnzTMmaqs2IJ-352">
          <mxGeometry x="30" width="130" height="30" as="geometry">
            <mxRectangle width="130" height="30" as="alternateBounds" />
          </mxGeometry>
        </mxCell>
        <mxCell id="mHg_K5r4MnzTMmaqs2IJ-358" value="MEMBERS" style="shape=table;startSize=30;container=1;collapsible=1;childLayout=tableLayout;fixedRows=1;rowLines=0;fontStyle=1;align=center;resizeLast=1;html=1;" vertex="1" parent="1">
          <mxGeometry x="1000" y="1320" width="160" height="270" as="geometry" />
        </mxCell>
        <mxCell id="mHg_K5r4MnzTMmaqs2IJ-436" style="shape=tableRow;horizontal=0;startSize=0;swimlaneHead=0;swimlaneBody=0;fillColor=none;collapsible=0;dropTarget=0;points=[[0,0.5],[1,0.5]];portConstraint=eastwest;top=0;left=0;right=0;bottom=1;" vertex="1" parent="mHg_K5r4MnzTMmaqs2IJ-358">
          <mxGeometry y="30" width="160" height="30" as="geometry" />
        </mxCell>
        <mxCell id="mHg_K5r4MnzTMmaqs2IJ-437" value="PK" style="shape=partialRectangle;connectable=0;fillColor=none;top=0;left=0;bottom=0;right=0;fontStyle=1;overflow=hidden;whiteSpace=wrap;html=1;" vertex="1" parent="mHg_K5r4MnzTMmaqs2IJ-436">
          <mxGeometry width="30" height="30" as="geometry">
            <mxRectangle width="30" height="30" as="alternateBounds" />
          </mxGeometry>
        </mxCell>
        <mxCell id="mHg_K5r4MnzTMmaqs2IJ-438" value="member_id" style="shape=partialRectangle;connectable=0;fillColor=none;top=0;left=0;bottom=0;right=0;align=left;spacingLeft=6;fontStyle=5;overflow=hidden;whiteSpace=wrap;html=1;" vertex="1" parent="mHg_K5r4MnzTMmaqs2IJ-436">
          <mxGeometry x="30" width="130" height="30" as="geometry">
            <mxRectangle width="130" height="30" as="alternateBounds" />
          </mxGeometry>
        </mxCell>
        <mxCell id="mHg_K5r4MnzTMmaqs2IJ-433" style="shape=tableRow;horizontal=0;startSize=0;swimlaneHead=0;swimlaneBody=0;fillColor=none;collapsible=0;dropTarget=0;points=[[0,0.5],[1,0.5]];portConstraint=eastwest;top=0;left=0;right=0;bottom=1;" vertex="1" parent="mHg_K5r4MnzTMmaqs2IJ-358">
          <mxGeometry y="60" width="160" height="30" as="geometry" />
        </mxCell>
        <mxCell id="mHg_K5r4MnzTMmaqs2IJ-434" style="shape=partialRectangle;connectable=0;fillColor=none;top=0;left=0;bottom=0;right=0;fontStyle=1;overflow=hidden;whiteSpace=wrap;html=1;" vertex="1" parent="mHg_K5r4MnzTMmaqs2IJ-433">
          <mxGeometry width="30" height="30" as="geometry">
            <mxRectangle width="30" height="30" as="alternateBounds" />
          </mxGeometry>
        </mxCell>
        <mxCell id="mHg_K5r4MnzTMmaqs2IJ-435" value="name" style="shape=partialRectangle;connectable=0;fillColor=none;top=0;left=0;bottom=0;right=0;align=left;spacingLeft=6;fontStyle=5;overflow=hidden;whiteSpace=wrap;html=1;" vertex="1" parent="mHg_K5r4MnzTMmaqs2IJ-433">
          <mxGeometry x="30" width="130" height="30" as="geometry">
            <mxRectangle width="130" height="30" as="alternateBounds" />
          </mxGeometry>
        </mxCell>
        <mxCell id="mHg_K5r4MnzTMmaqs2IJ-430" style="shape=tableRow;horizontal=0;startSize=0;swimlaneHead=0;swimlaneBody=0;fillColor=none;collapsible=0;dropTarget=0;points=[[0,0.5],[1,0.5]];portConstraint=eastwest;top=0;left=0;right=0;bottom=1;" vertex="1" parent="mHg_K5r4MnzTMmaqs2IJ-358">
          <mxGeometry y="90" width="160" height="30" as="geometry" />
        </mxCell>
        <mxCell id="mHg_K5r4MnzTMmaqs2IJ-431" style="shape=partialRectangle;connectable=0;fillColor=none;top=0;left=0;bottom=0;right=0;fontStyle=1;overflow=hidden;whiteSpace=wrap;html=1;" vertex="1" parent="mHg_K5r4MnzTMmaqs2IJ-430">
          <mxGeometry width="30" height="30" as="geometry">
            <mxRectangle width="30" height="30" as="alternateBounds" />
          </mxGeometry>
        </mxCell>
        <mxCell id="mHg_K5r4MnzTMmaqs2IJ-432" value="password" style="shape=partialRectangle;connectable=0;fillColor=none;top=0;left=0;bottom=0;right=0;align=left;spacingLeft=6;fontStyle=5;overflow=hidden;whiteSpace=wrap;html=1;" vertex="1" parent="mHg_K5r4MnzTMmaqs2IJ-430">
          <mxGeometry x="30" width="130" height="30" as="geometry">
            <mxRectangle width="130" height="30" as="alternateBounds" />
          </mxGeometry>
        </mxCell>
        <mxCell id="mHg_K5r4MnzTMmaqs2IJ-427" style="shape=tableRow;horizontal=0;startSize=0;swimlaneHead=0;swimlaneBody=0;fillColor=none;collapsible=0;dropTarget=0;points=[[0,0.5],[1,0.5]];portConstraint=eastwest;top=0;left=0;right=0;bottom=1;" vertex="1" parent="mHg_K5r4MnzTMmaqs2IJ-358">
          <mxGeometry y="120" width="160" height="30" as="geometry" />
        </mxCell>
        <mxCell id="mHg_K5r4MnzTMmaqs2IJ-428" style="shape=partialRectangle;connectable=0;fillColor=none;top=0;left=0;bottom=0;right=0;fontStyle=1;overflow=hidden;whiteSpace=wrap;html=1;" vertex="1" parent="mHg_K5r4MnzTMmaqs2IJ-427">
          <mxGeometry width="30" height="30" as="geometry">
            <mxRectangle width="30" height="30" as="alternateBounds" />
          </mxGeometry>
        </mxCell>
        <mxCell id="mHg_K5r4MnzTMmaqs2IJ-429" value="email" style="shape=partialRectangle;connectable=0;fillColor=none;top=0;left=0;bottom=0;right=0;align=left;spacingLeft=6;fontStyle=5;overflow=hidden;whiteSpace=wrap;html=1;" vertex="1" parent="mHg_K5r4MnzTMmaqs2IJ-427">
          <mxGeometry x="30" width="130" height="30" as="geometry">
            <mxRectangle width="130" height="30" as="alternateBounds" />
          </mxGeometry>
        </mxCell>
        <mxCell id="mHg_K5r4MnzTMmaqs2IJ-424" style="shape=tableRow;horizontal=0;startSize=0;swimlaneHead=0;swimlaneBody=0;fillColor=none;collapsible=0;dropTarget=0;points=[[0,0.5],[1,0.5]];portConstraint=eastwest;top=0;left=0;right=0;bottom=1;" vertex="1" parent="mHg_K5r4MnzTMmaqs2IJ-358">
          <mxGeometry y="150" width="160" height="30" as="geometry" />
        </mxCell>
        <mxCell id="mHg_K5r4MnzTMmaqs2IJ-425" style="shape=partialRectangle;connectable=0;fillColor=none;top=0;left=0;bottom=0;right=0;fontStyle=1;overflow=hidden;whiteSpace=wrap;html=1;" vertex="1" parent="mHg_K5r4MnzTMmaqs2IJ-424">
          <mxGeometry width="30" height="30" as="geometry">
            <mxRectangle width="30" height="30" as="alternateBounds" />
          </mxGeometry>
        </mxCell>
        <mxCell id="mHg_K5r4MnzTMmaqs2IJ-426" value="phone" style="shape=partialRectangle;connectable=0;fillColor=none;top=0;left=0;bottom=0;right=0;align=left;spacingLeft=6;fontStyle=5;overflow=hidden;whiteSpace=wrap;html=1;" vertex="1" parent="mHg_K5r4MnzTMmaqs2IJ-424">
          <mxGeometry x="30" width="130" height="30" as="geometry">
            <mxRectangle width="130" height="30" as="alternateBounds" />
          </mxGeometry>
        </mxCell>
        <mxCell id="mHg_K5r4MnzTMmaqs2IJ-359" value="" style="shape=tableRow;horizontal=0;startSize=0;swimlaneHead=0;swimlaneBody=0;fillColor=none;collapsible=0;dropTarget=0;points=[[0,0.5],[1,0.5]];portConstraint=eastwest;top=0;left=0;right=0;bottom=1;" vertex="1" parent="mHg_K5r4MnzTMmaqs2IJ-358">
          <mxGeometry y="180" width="160" height="30" as="geometry" />
        </mxCell>
        <mxCell id="mHg_K5r4MnzTMmaqs2IJ-360" value="" style="shape=partialRectangle;connectable=0;fillColor=none;top=0;left=0;bottom=0;right=0;fontStyle=1;overflow=hidden;whiteSpace=wrap;html=1;" vertex="1" parent="mHg_K5r4MnzTMmaqs2IJ-359">
          <mxGeometry width="30" height="30" as="geometry">
            <mxRectangle width="30" height="30" as="alternateBounds" />
          </mxGeometry>
        </mxCell>
        <mxCell id="mHg_K5r4MnzTMmaqs2IJ-361" value="address" style="shape=partialRectangle;connectable=0;fillColor=none;top=0;left=0;bottom=0;right=0;align=left;spacingLeft=6;fontStyle=5;overflow=hidden;whiteSpace=wrap;html=1;" vertex="1" parent="mHg_K5r4MnzTMmaqs2IJ-359">
          <mxGeometry x="30" width="130" height="30" as="geometry">
            <mxRectangle width="130" height="30" as="alternateBounds" />
          </mxGeometry>
        </mxCell>
        <mxCell id="mHg_K5r4MnzTMmaqs2IJ-362" value="" style="shape=tableRow;horizontal=0;startSize=0;swimlaneHead=0;swimlaneBody=0;fillColor=none;collapsible=0;dropTarget=0;points=[[0,0.5],[1,0.5]];portConstraint=eastwest;top=0;left=0;right=0;bottom=0;" vertex="1" parent="mHg_K5r4MnzTMmaqs2IJ-358">
          <mxGeometry y="210" width="160" height="30" as="geometry" />
        </mxCell>
        <mxCell id="mHg_K5r4MnzTMmaqs2IJ-363" value="" style="shape=partialRectangle;connectable=0;fillColor=none;top=0;left=0;bottom=0;right=0;editable=1;overflow=hidden;whiteSpace=wrap;html=1;" vertex="1" parent="mHg_K5r4MnzTMmaqs2IJ-362">
          <mxGeometry width="30" height="30" as="geometry">
            <mxRectangle width="30" height="30" as="alternateBounds" />
          </mxGeometry>
        </mxCell>
        <mxCell id="mHg_K5r4MnzTMmaqs2IJ-364" value="job" style="shape=partialRectangle;connectable=0;fillColor=none;top=0;left=0;bottom=0;right=0;align=left;spacingLeft=6;overflow=hidden;whiteSpace=wrap;html=1;" vertex="1" parent="mHg_K5r4MnzTMmaqs2IJ-362">
          <mxGeometry x="30" width="130" height="30" as="geometry">
            <mxRectangle width="130" height="30" as="alternateBounds" />
          </mxGeometry>
        </mxCell>
        <mxCell id="mHg_K5r4MnzTMmaqs2IJ-365" value="" style="shape=tableRow;horizontal=0;startSize=0;swimlaneHead=0;swimlaneBody=0;fillColor=none;collapsible=0;dropTarget=0;points=[[0,0.5],[1,0.5]];portConstraint=eastwest;top=0;left=0;right=0;bottom=0;" vertex="1" parent="mHg_K5r4MnzTMmaqs2IJ-358">
          <mxGeometry y="240" width="160" height="30" as="geometry" />
        </mxCell>
        <mxCell id="mHg_K5r4MnzTMmaqs2IJ-366" value="" style="shape=partialRectangle;connectable=0;fillColor=none;top=0;left=0;bottom=0;right=0;editable=1;overflow=hidden;whiteSpace=wrap;html=1;" vertex="1" parent="mHg_K5r4MnzTMmaqs2IJ-365">
          <mxGeometry width="30" height="30" as="geometry">
            <mxRectangle width="30" height="30" as="alternateBounds" />
          </mxGeometry>
        </mxCell>
        <mxCell id="mHg_K5r4MnzTMmaqs2IJ-367" value="wifter_type" style="shape=partialRectangle;connectable=0;fillColor=none;top=0;left=0;bottom=0;right=0;align=left;spacingLeft=6;overflow=hidden;whiteSpace=wrap;html=1;" vertex="1" parent="mHg_K5r4MnzTMmaqs2IJ-365">
          <mxGeometry x="30" width="130" height="30" as="geometry">
            <mxRectangle width="130" height="30" as="alternateBounds" />
          </mxGeometry>
        </mxCell>
        <mxCell id="mHg_K5r4MnzTMmaqs2IJ-371" value="files" style="shape=table;startSize=20;container=1;collapsible=1;childLayout=tableLayout;fixedRows=1;rowLines=0;fontStyle=1;align=center;resizeLast=1;html=1;" vertex="1" parent="1">
          <mxGeometry x="660" y="1240" width="190" height="260" as="geometry" />
        </mxCell>
        <mxCell id="mHg_K5r4MnzTMmaqs2IJ-418" style="shape=tableRow;horizontal=0;startSize=0;swimlaneHead=0;swimlaneBody=0;fillColor=none;collapsible=0;dropTarget=0;points=[[0,0.5],[1,0.5]];portConstraint=eastwest;top=0;left=0;right=0;bottom=1;" vertex="1" parent="mHg_K5r4MnzTMmaqs2IJ-371">
          <mxGeometry y="20" width="190" height="30" as="geometry" />
        </mxCell>
        <mxCell id="mHg_K5r4MnzTMmaqs2IJ-419" value="pk" style="shape=partialRectangle;connectable=0;fillColor=none;top=0;left=0;bottom=0;right=0;fontStyle=1;overflow=hidden;whiteSpace=wrap;html=1;" vertex="1" parent="mHg_K5r4MnzTMmaqs2IJ-418">
          <mxGeometry width="30" height="30" as="geometry">
            <mxRectangle width="30" height="30" as="alternateBounds" />
          </mxGeometry>
        </mxCell>
        <mxCell id="mHg_K5r4MnzTMmaqs2IJ-420" value="file_id" style="shape=partialRectangle;connectable=0;fillColor=none;top=0;left=0;bottom=0;right=0;align=left;spacingLeft=6;fontStyle=5;overflow=hidden;whiteSpace=wrap;html=1;" vertex="1" parent="mHg_K5r4MnzTMmaqs2IJ-418">
          <mxGeometry x="30" width="160" height="30" as="geometry">
            <mxRectangle width="160" height="30" as="alternateBounds" />
          </mxGeometry>
        </mxCell>
        <mxCell id="mHg_K5r4MnzTMmaqs2IJ-415" style="shape=tableRow;horizontal=0;startSize=0;swimlaneHead=0;swimlaneBody=0;fillColor=none;collapsible=0;dropTarget=0;points=[[0,0.5],[1,0.5]];portConstraint=eastwest;top=0;left=0;right=0;bottom=1;" vertex="1" parent="mHg_K5r4MnzTMmaqs2IJ-371">
          <mxGeometry y="50" width="190" height="30" as="geometry" />
        </mxCell>
        <mxCell id="mHg_K5r4MnzTMmaqs2IJ-416" value="fk" style="shape=partialRectangle;connectable=0;fillColor=none;top=0;left=0;bottom=0;right=0;fontStyle=1;overflow=hidden;whiteSpace=wrap;html=1;" vertex="1" parent="mHg_K5r4MnzTMmaqs2IJ-415">
          <mxGeometry width="30" height="30" as="geometry">
            <mxRectangle width="30" height="30" as="alternateBounds" />
          </mxGeometry>
        </mxCell>
        <mxCell id="mHg_K5r4MnzTMmaqs2IJ-417" value="wirter_id" style="shape=partialRectangle;connectable=0;fillColor=none;top=0;left=0;bottom=0;right=0;align=left;spacingLeft=6;fontStyle=5;overflow=hidden;whiteSpace=wrap;html=1;" vertex="1" parent="mHg_K5r4MnzTMmaqs2IJ-415">
          <mxGeometry x="30" width="160" height="30" as="geometry">
            <mxRectangle width="160" height="30" as="alternateBounds" />
          </mxGeometry>
        </mxCell>
        <mxCell id="mHg_K5r4MnzTMmaqs2IJ-412" style="shape=tableRow;horizontal=0;startSize=0;swimlaneHead=0;swimlaneBody=0;fillColor=none;collapsible=0;dropTarget=0;points=[[0,0.5],[1,0.5]];portConstraint=eastwest;top=0;left=0;right=0;bottom=1;" vertex="1" parent="mHg_K5r4MnzTMmaqs2IJ-371">
          <mxGeometry y="80" width="190" height="30" as="geometry" />
        </mxCell>
        <mxCell id="mHg_K5r4MnzTMmaqs2IJ-413" value="fk" style="shape=partialRectangle;connectable=0;fillColor=none;top=0;left=0;bottom=0;right=0;fontStyle=1;overflow=hidden;whiteSpace=wrap;html=1;" vertex="1" parent="mHg_K5r4MnzTMmaqs2IJ-412">
          <mxGeometry width="30" height="30" as="geometry">
            <mxRectangle width="30" height="30" as="alternateBounds" />
          </mxGeometry>
        </mxCell>
        <mxCell id="mHg_K5r4MnzTMmaqs2IJ-414" value="board_id" style="shape=partialRectangle;connectable=0;fillColor=none;top=0;left=0;bottom=0;right=0;align=left;spacingLeft=6;fontStyle=5;overflow=hidden;whiteSpace=wrap;html=1;" vertex="1" parent="mHg_K5r4MnzTMmaqs2IJ-412">
          <mxGeometry x="30" width="160" height="30" as="geometry">
            <mxRectangle width="160" height="30" as="alternateBounds" />
          </mxGeometry>
        </mxCell>
        <mxCell id="mHg_K5r4MnzTMmaqs2IJ-372" value="" style="shape=tableRow;horizontal=0;startSize=0;swimlaneHead=0;swimlaneBody=0;fillColor=none;collapsible=0;dropTarget=0;points=[[0,0.5],[1,0.5]];portConstraint=eastwest;top=0;left=0;right=0;bottom=1;" vertex="1" parent="mHg_K5r4MnzTMmaqs2IJ-371">
          <mxGeometry y="110" width="190" height="30" as="geometry" />
        </mxCell>
        <mxCell id="mHg_K5r4MnzTMmaqs2IJ-373" value="" style="shape=partialRectangle;connectable=0;fillColor=none;top=0;left=0;bottom=0;right=0;fontStyle=1;overflow=hidden;whiteSpace=wrap;html=1;" vertex="1" parent="mHg_K5r4MnzTMmaqs2IJ-372">
          <mxGeometry width="30" height="30" as="geometry">
            <mxRectangle width="30" height="30" as="alternateBounds" />
          </mxGeometry>
        </mxCell>
        <mxCell id="mHg_K5r4MnzTMmaqs2IJ-374" value="tags" style="shape=partialRectangle;connectable=0;fillColor=none;top=0;left=0;bottom=0;right=0;align=left;spacingLeft=6;fontStyle=5;overflow=hidden;whiteSpace=wrap;html=1;" vertex="1" parent="mHg_K5r4MnzTMmaqs2IJ-372">
          <mxGeometry x="30" width="160" height="30" as="geometry">
            <mxRectangle width="160" height="30" as="alternateBounds" />
          </mxGeometry>
        </mxCell>
        <mxCell id="mHg_K5r4MnzTMmaqs2IJ-375" value="" style="shape=tableRow;horizontal=0;startSize=0;swimlaneHead=0;swimlaneBody=0;fillColor=none;collapsible=0;dropTarget=0;points=[[0,0.5],[1,0.5]];portConstraint=eastwest;top=0;left=0;right=0;bottom=0;" vertex="1" parent="mHg_K5r4MnzTMmaqs2IJ-371">
          <mxGeometry y="140" width="190" height="20" as="geometry" />
        </mxCell>
        <mxCell id="mHg_K5r4MnzTMmaqs2IJ-376" value="" style="shape=partialRectangle;connectable=0;fillColor=none;top=0;left=0;bottom=0;right=0;editable=1;overflow=hidden;whiteSpace=wrap;html=1;" vertex="1" parent="mHg_K5r4MnzTMmaqs2IJ-375">
          <mxGeometry width="30" height="20" as="geometry">
            <mxRectangle width="30" height="20" as="alternateBounds" />
          </mxGeometry>
        </mxCell>
        <mxCell id="mHg_K5r4MnzTMmaqs2IJ-377" value="bytes" style="shape=partialRectangle;connectable=0;fillColor=none;top=0;left=0;bottom=0;right=0;align=left;spacingLeft=6;overflow=hidden;whiteSpace=wrap;html=1;" vertex="1" parent="mHg_K5r4MnzTMmaqs2IJ-375">
          <mxGeometry x="30" width="160" height="20" as="geometry">
            <mxRectangle width="160" height="20" as="alternateBounds" />
          </mxGeometry>
        </mxCell>
        <mxCell id="mHg_K5r4MnzTMmaqs2IJ-378" value="" style="shape=tableRow;horizontal=0;startSize=0;swimlaneHead=0;swimlaneBody=0;fillColor=none;collapsible=0;dropTarget=0;points=[[0,0.5],[1,0.5]];portConstraint=eastwest;top=0;left=0;right=0;bottom=0;" vertex="1" parent="mHg_K5r4MnzTMmaqs2IJ-371">
          <mxGeometry y="160" width="190" height="30" as="geometry" />
        </mxCell>
        <mxCell id="mHg_K5r4MnzTMmaqs2IJ-379" value="" style="shape=partialRectangle;connectable=0;fillColor=none;top=0;left=0;bottom=0;right=0;editable=1;overflow=hidden;whiteSpace=wrap;html=1;" vertex="1" parent="mHg_K5r4MnzTMmaqs2IJ-378">
          <mxGeometry width="30" height="30" as="geometry">
            <mxRectangle width="30" height="30" as="alternateBounds" />
          </mxGeometry>
        </mxCell>
        <mxCell id="mHg_K5r4MnzTMmaqs2IJ-380" value="created_at" style="shape=partialRectangle;connectable=0;fillColor=none;top=0;left=0;bottom=0;right=0;align=left;spacingLeft=6;overflow=hidden;whiteSpace=wrap;html=1;" vertex="1" parent="mHg_K5r4MnzTMmaqs2IJ-378">
          <mxGeometry x="30" width="160" height="30" as="geometry">
            <mxRectangle width="160" height="30" as="alternateBounds" />
          </mxGeometry>
        </mxCell>
        <mxCell id="mHg_K5r4MnzTMmaqs2IJ-381" value="" style="shape=tableRow;horizontal=0;startSize=0;swimlaneHead=0;swimlaneBody=0;fillColor=none;collapsible=0;dropTarget=0;points=[[0,0.5],[1,0.5]];portConstraint=eastwest;top=0;left=0;right=0;bottom=0;" vertex="1" parent="mHg_K5r4MnzTMmaqs2IJ-371">
          <mxGeometry y="190" width="190" height="30" as="geometry" />
        </mxCell>
        <mxCell id="mHg_K5r4MnzTMmaqs2IJ-382" value="" style="shape=partialRectangle;connectable=0;fillColor=none;top=0;left=0;bottom=0;right=0;editable=1;overflow=hidden;whiteSpace=wrap;html=1;" vertex="1" parent="mHg_K5r4MnzTMmaqs2IJ-381">
          <mxGeometry width="30" height="30" as="geometry">
            <mxRectangle width="30" height="30" as="alternateBounds" />
          </mxGeometry>
        </mxCell>
        <mxCell id="mHg_K5r4MnzTMmaqs2IJ-383" value="updated_at" style="shape=partialRectangle;connectable=0;fillColor=none;top=0;left=0;bottom=0;right=0;align=left;spacingLeft=6;overflow=hidden;whiteSpace=wrap;html=1;" vertex="1" parent="mHg_K5r4MnzTMmaqs2IJ-381">
          <mxGeometry x="30" width="160" height="30" as="geometry">
            <mxRectangle width="160" height="30" as="alternateBounds" />
          </mxGeometry>
        </mxCell>
        <mxCell id="mHg_K5r4MnzTMmaqs2IJ-421" style="shape=tableRow;horizontal=0;startSize=0;swimlaneHead=0;swimlaneBody=0;fillColor=none;collapsible=0;dropTarget=0;points=[[0,0.5],[1,0.5]];portConstraint=eastwest;top=0;left=0;right=0;bottom=0;" vertex="1" parent="mHg_K5r4MnzTMmaqs2IJ-371">
          <mxGeometry y="220" width="190" height="30" as="geometry" />
        </mxCell>
        <mxCell id="mHg_K5r4MnzTMmaqs2IJ-422" style="shape=partialRectangle;connectable=0;fillColor=none;top=0;left=0;bottom=0;right=0;editable=1;overflow=hidden;whiteSpace=wrap;html=1;" vertex="1" parent="mHg_K5r4MnzTMmaqs2IJ-421">
          <mxGeometry width="30" height="30" as="geometry">
            <mxRectangle width="30" height="30" as="alternateBounds" />
          </mxGeometry>
        </mxCell>
        <mxCell id="mHg_K5r4MnzTMmaqs2IJ-423" value="deleted_at" style="shape=partialRectangle;connectable=0;fillColor=none;top=0;left=0;bottom=0;right=0;align=left;spacingLeft=6;overflow=hidden;whiteSpace=wrap;html=1;" vertex="1" parent="mHg_K5r4MnzTMmaqs2IJ-421">
          <mxGeometry x="30" width="160" height="30" as="geometry">
            <mxRectangle width="160" height="30" as="alternateBounds" />
          </mxGeometry>
        </mxCell>
        <mxCell id="mHg_K5r4MnzTMmaqs2IJ-384" value="CATEGORY" style="shape=table;startSize=30;container=1;collapsible=1;childLayout=tableLayout;fixedRows=1;rowLines=0;fontStyle=1;align=center;resizeLast=1;html=1;" vertex="1" parent="1">
          <mxGeometry x="1220" y="1280" width="220" height="270" as="geometry" />
        </mxCell>
        <mxCell id="mHg_K5r4MnzTMmaqs2IJ-385" value="" style="shape=tableRow;horizontal=0;startSize=0;swimlaneHead=0;swimlaneBody=0;fillColor=none;collapsible=0;dropTarget=0;points=[[0,0.5],[1,0.5]];portConstraint=eastwest;top=0;left=0;right=0;bottom=1;" vertex="1" parent="mHg_K5r4MnzTMmaqs2IJ-384">
          <mxGeometry y="30" width="220" height="40" as="geometry" />
        </mxCell>
        <mxCell id="mHg_K5r4MnzTMmaqs2IJ-386" value="PK" style="shape=partialRectangle;connectable=0;fillColor=none;top=0;left=0;bottom=0;right=0;fontStyle=1;overflow=hidden;whiteSpace=wrap;html=1;" vertex="1" parent="mHg_K5r4MnzTMmaqs2IJ-385">
          <mxGeometry width="30" height="40" as="geometry">
            <mxRectangle width="30" height="40" as="alternateBounds" />
          </mxGeometry>
        </mxCell>
        <mxCell id="mHg_K5r4MnzTMmaqs2IJ-387" value="cate_id" style="shape=partialRectangle;connectable=0;fillColor=none;top=0;left=0;bottom=0;right=0;align=left;spacingLeft=6;fontStyle=5;overflow=hidden;whiteSpace=wrap;html=1;" vertex="1" parent="mHg_K5r4MnzTMmaqs2IJ-385">
          <mxGeometry x="30" width="190" height="40" as="geometry">
            <mxRectangle width="190" height="40" as="alternateBounds" />
          </mxGeometry>
        </mxCell>
        <mxCell id="mHg_K5r4MnzTMmaqs2IJ-388" value="" style="shape=tableRow;horizontal=0;startSize=0;swimlaneHead=0;swimlaneBody=0;fillColor=none;collapsible=0;dropTarget=0;points=[[0,0.5],[1,0.5]];portConstraint=eastwest;top=0;left=0;right=0;bottom=0;" vertex="1" parent="mHg_K5r4MnzTMmaqs2IJ-384">
          <mxGeometry y="70" width="220" height="40" as="geometry" />
        </mxCell>
        <mxCell id="mHg_K5r4MnzTMmaqs2IJ-389" value="" style="shape=partialRectangle;connectable=0;fillColor=none;top=0;left=0;bottom=0;right=0;editable=1;overflow=hidden;whiteSpace=wrap;html=1;" vertex="1" parent="mHg_K5r4MnzTMmaqs2IJ-388">
          <mxGeometry width="30" height="40" as="geometry">
            <mxRectangle width="30" height="40" as="alternateBounds" />
          </mxGeometry>
        </mxCell>
        <mxCell id="mHg_K5r4MnzTMmaqs2IJ-390" value="title" style="shape=partialRectangle;connectable=0;fillColor=none;top=0;left=0;bottom=0;right=0;align=left;spacingLeft=6;overflow=hidden;whiteSpace=wrap;html=1;" vertex="1" parent="mHg_K5r4MnzTMmaqs2IJ-388">
          <mxGeometry x="30" width="190" height="40" as="geometry">
            <mxRectangle width="190" height="40" as="alternateBounds" />
          </mxGeometry>
        </mxCell>
        <mxCell id="mHg_K5r4MnzTMmaqs2IJ-391" value="" style="shape=tableRow;horizontal=0;startSize=0;swimlaneHead=0;swimlaneBody=0;fillColor=none;collapsible=0;dropTarget=0;points=[[0,0.5],[1,0.5]];portConstraint=eastwest;top=0;left=0;right=0;bottom=0;" vertex="1" parent="mHg_K5r4MnzTMmaqs2IJ-384">
          <mxGeometry y="110" width="220" height="40" as="geometry" />
        </mxCell>
        <mxCell id="mHg_K5r4MnzTMmaqs2IJ-392" value="" style="shape=partialRectangle;connectable=0;fillColor=none;top=0;left=0;bottom=0;right=0;editable=1;overflow=hidden;whiteSpace=wrap;html=1;" vertex="1" parent="mHg_K5r4MnzTMmaqs2IJ-391">
          <mxGeometry width="30" height="40" as="geometry">
            <mxRectangle width="30" height="40" as="alternateBounds" />
          </mxGeometry>
        </mxCell>
        <mxCell id="mHg_K5r4MnzTMmaqs2IJ-393" value="eng_title" style="shape=partialRectangle;connectable=0;fillColor=none;top=0;left=0;bottom=0;right=0;align=left;spacingLeft=6;overflow=hidden;whiteSpace=wrap;html=1;" vertex="1" parent="mHg_K5r4MnzTMmaqs2IJ-391">
          <mxGeometry x="30" width="190" height="40" as="geometry">
            <mxRectangle width="190" height="40" as="alternateBounds" />
          </mxGeometry>
        </mxCell>
        <mxCell id="mHg_K5r4MnzTMmaqs2IJ-394" value="" style="shape=tableRow;horizontal=0;startSize=0;swimlaneHead=0;swimlaneBody=0;fillColor=none;collapsible=0;dropTarget=0;points=[[0,0.5],[1,0.5]];portConstraint=eastwest;top=0;left=0;right=0;bottom=0;" vertex="1" parent="mHg_K5r4MnzTMmaqs2IJ-384">
          <mxGeometry y="150" width="220" height="40" as="geometry" />
        </mxCell>
        <mxCell id="mHg_K5r4MnzTMmaqs2IJ-395" value="" style="shape=partialRectangle;connectable=0;fillColor=none;top=0;left=0;bottom=0;right=0;editable=1;overflow=hidden;whiteSpace=wrap;html=1;" vertex="1" parent="mHg_K5r4MnzTMmaqs2IJ-394">
          <mxGeometry width="30" height="40" as="geometry">
            <mxRectangle width="30" height="40" as="alternateBounds" />
          </mxGeometry>
        </mxCell>
        <mxCell id="mHg_K5r4MnzTMmaqs2IJ-396" value="created_at" style="shape=partialRectangle;connectable=0;fillColor=none;top=0;left=0;bottom=0;right=0;align=left;spacingLeft=6;overflow=hidden;whiteSpace=wrap;html=1;" vertex="1" parent="mHg_K5r4MnzTMmaqs2IJ-394">
          <mxGeometry x="30" width="190" height="40" as="geometry">
            <mxRectangle width="190" height="40" as="alternateBounds" />
          </mxGeometry>
        </mxCell>
        <mxCell id="mHg_K5r4MnzTMmaqs2IJ-471" style="shape=tableRow;horizontal=0;startSize=0;swimlaneHead=0;swimlaneBody=0;fillColor=none;collapsible=0;dropTarget=0;points=[[0,0.5],[1,0.5]];portConstraint=eastwest;top=0;left=0;right=0;bottom=0;" vertex="1" parent="mHg_K5r4MnzTMmaqs2IJ-384">
          <mxGeometry y="190" width="220" height="40" as="geometry" />
        </mxCell>
        <mxCell id="mHg_K5r4MnzTMmaqs2IJ-472" style="shape=partialRectangle;connectable=0;fillColor=none;top=0;left=0;bottom=0;right=0;editable=1;overflow=hidden;whiteSpace=wrap;html=1;" vertex="1" parent="mHg_K5r4MnzTMmaqs2IJ-471">
          <mxGeometry width="30" height="40" as="geometry">
            <mxRectangle width="30" height="40" as="alternateBounds" />
          </mxGeometry>
        </mxCell>
        <mxCell id="mHg_K5r4MnzTMmaqs2IJ-473" value="updated_at" style="shape=partialRectangle;connectable=0;fillColor=none;top=0;left=0;bottom=0;right=0;align=left;spacingLeft=6;overflow=hidden;whiteSpace=wrap;html=1;" vertex="1" parent="mHg_K5r4MnzTMmaqs2IJ-471">
          <mxGeometry x="30" width="190" height="40" as="geometry">
            <mxRectangle width="190" height="40" as="alternateBounds" />
          </mxGeometry>
        </mxCell>
        <mxCell id="mHg_K5r4MnzTMmaqs2IJ-474" style="shape=tableRow;horizontal=0;startSize=0;swimlaneHead=0;swimlaneBody=0;fillColor=none;collapsible=0;dropTarget=0;points=[[0,0.5],[1,0.5]];portConstraint=eastwest;top=0;left=0;right=0;bottom=0;" vertex="1" parent="mHg_K5r4MnzTMmaqs2IJ-384">
          <mxGeometry y="230" width="220" height="40" as="geometry" />
        </mxCell>
        <mxCell id="mHg_K5r4MnzTMmaqs2IJ-475" style="shape=partialRectangle;connectable=0;fillColor=none;top=0;left=0;bottom=0;right=0;editable=1;overflow=hidden;whiteSpace=wrap;html=1;" vertex="1" parent="mHg_K5r4MnzTMmaqs2IJ-474">
          <mxGeometry width="30" height="40" as="geometry">
            <mxRectangle width="30" height="40" as="alternateBounds" />
          </mxGeometry>
        </mxCell>
        <mxCell id="mHg_K5r4MnzTMmaqs2IJ-476" value="deleted_at" style="shape=partialRectangle;connectable=0;fillColor=none;top=0;left=0;bottom=0;right=0;align=left;spacingLeft=6;overflow=hidden;whiteSpace=wrap;html=1;" vertex="1" parent="mHg_K5r4MnzTMmaqs2IJ-474">
          <mxGeometry x="30" width="190" height="40" as="geometry">
            <mxRectangle width="190" height="40" as="alternateBounds" />
          </mxGeometry>
        </mxCell>
        <mxCell id="mHg_K5r4MnzTMmaqs2IJ-439" value="BOARD" style="shape=table;startSize=30;container=1;collapsible=1;childLayout=tableLayout;fixedRows=1;rowLines=0;fontStyle=1;align=center;resizeLast=1;html=1;" vertex="1" parent="1">
          <mxGeometry x="1350" y="860" width="180" height="200" as="geometry" />
        </mxCell>
        <mxCell id="mHg_K5r4MnzTMmaqs2IJ-462" style="shape=tableRow;horizontal=0;startSize=0;swimlaneHead=0;swimlaneBody=0;fillColor=none;collapsible=0;dropTarget=0;points=[[0,0.5],[1,0.5]];portConstraint=eastwest;top=0;left=0;right=0;bottom=1;" vertex="1" parent="mHg_K5r4MnzTMmaqs2IJ-439">
          <mxGeometry y="30" width="180" height="30" as="geometry" />
        </mxCell>
        <mxCell id="mHg_K5r4MnzTMmaqs2IJ-463" value="PK" style="shape=partialRectangle;connectable=0;fillColor=none;top=0;left=0;bottom=0;right=0;fontStyle=1;overflow=hidden;whiteSpace=wrap;html=1;" vertex="1" parent="mHg_K5r4MnzTMmaqs2IJ-462">
          <mxGeometry width="30" height="30" as="geometry">
            <mxRectangle width="30" height="30" as="alternateBounds" />
          </mxGeometry>
        </mxCell>
        <mxCell id="mHg_K5r4MnzTMmaqs2IJ-464" value="board_id" style="shape=partialRectangle;connectable=0;fillColor=none;top=0;left=0;bottom=0;right=0;align=left;spacingLeft=6;fontStyle=5;overflow=hidden;whiteSpace=wrap;html=1;" vertex="1" parent="mHg_K5r4MnzTMmaqs2IJ-462">
          <mxGeometry x="30" width="150" height="30" as="geometry">
            <mxRectangle width="150" height="30" as="alternateBounds" />
          </mxGeometry>
        </mxCell>
        <mxCell id="mHg_K5r4MnzTMmaqs2IJ-459" style="shape=tableRow;horizontal=0;startSize=0;swimlaneHead=0;swimlaneBody=0;fillColor=none;collapsible=0;dropTarget=0;points=[[0,0.5],[1,0.5]];portConstraint=eastwest;top=0;left=0;right=0;bottom=1;" vertex="1" parent="mHg_K5r4MnzTMmaqs2IJ-439">
          <mxGeometry y="60" width="180" height="30" as="geometry" />
        </mxCell>
        <mxCell id="mHg_K5r4MnzTMmaqs2IJ-460" value="FK" style="shape=partialRectangle;connectable=0;fillColor=none;top=0;left=0;bottom=0;right=0;fontStyle=1;overflow=hidden;whiteSpace=wrap;html=1;" vertex="1" parent="mHg_K5r4MnzTMmaqs2IJ-459">
          <mxGeometry width="30" height="30" as="geometry">
            <mxRectangle width="30" height="30" as="alternateBounds" />
          </mxGeometry>
        </mxCell>
        <mxCell id="mHg_K5r4MnzTMmaqs2IJ-461" value="cate_id" style="shape=partialRectangle;connectable=0;fillColor=none;top=0;left=0;bottom=0;right=0;align=left;spacingLeft=6;fontStyle=5;overflow=hidden;whiteSpace=wrap;html=1;" vertex="1" parent="mHg_K5r4MnzTMmaqs2IJ-459">
          <mxGeometry x="30" width="150" height="30" as="geometry">
            <mxRectangle width="150" height="30" as="alternateBounds" />
          </mxGeometry>
        </mxCell>
        <mxCell id="mHg_K5r4MnzTMmaqs2IJ-456" style="shape=tableRow;horizontal=0;startSize=0;swimlaneHead=0;swimlaneBody=0;fillColor=none;collapsible=0;dropTarget=0;points=[[0,0.5],[1,0.5]];portConstraint=eastwest;top=0;left=0;right=0;bottom=1;" vertex="1" parent="mHg_K5r4MnzTMmaqs2IJ-439">
          <mxGeometry y="90" width="180" height="30" as="geometry" />
        </mxCell>
        <mxCell id="mHg_K5r4MnzTMmaqs2IJ-457" style="shape=partialRectangle;connectable=0;fillColor=none;top=0;left=0;bottom=0;right=0;fontStyle=1;overflow=hidden;whiteSpace=wrap;html=1;" vertex="1" parent="mHg_K5r4MnzTMmaqs2IJ-456">
          <mxGeometry width="30" height="30" as="geometry">
            <mxRectangle width="30" height="30" as="alternateBounds" />
          </mxGeometry>
        </mxCell>
        <mxCell id="mHg_K5r4MnzTMmaqs2IJ-458" value="title" style="shape=partialRectangle;connectable=0;fillColor=none;top=0;left=0;bottom=0;right=0;align=left;spacingLeft=6;fontStyle=5;overflow=hidden;whiteSpace=wrap;html=1;" vertex="1" parent="mHg_K5r4MnzTMmaqs2IJ-456">
          <mxGeometry x="30" width="150" height="30" as="geometry">
            <mxRectangle width="150" height="30" as="alternateBounds" />
          </mxGeometry>
        </mxCell>
        <mxCell id="mHg_K5r4MnzTMmaqs2IJ-440" value="" style="shape=tableRow;horizontal=0;startSize=0;swimlaneHead=0;swimlaneBody=0;fillColor=none;collapsible=0;dropTarget=0;points=[[0,0.5],[1,0.5]];portConstraint=eastwest;top=0;left=0;right=0;bottom=1;" vertex="1" parent="mHg_K5r4MnzTMmaqs2IJ-439">
          <mxGeometry y="120" width="180" height="30" as="geometry" />
        </mxCell>
        <mxCell id="mHg_K5r4MnzTMmaqs2IJ-441" value="" style="shape=partialRectangle;connectable=0;fillColor=none;top=0;left=0;bottom=0;right=0;fontStyle=1;overflow=hidden;whiteSpace=wrap;html=1;" vertex="1" parent="mHg_K5r4MnzTMmaqs2IJ-440">
          <mxGeometry width="30" height="30" as="geometry">
            <mxRectangle width="30" height="30" as="alternateBounds" />
          </mxGeometry>
        </mxCell>
        <mxCell id="mHg_K5r4MnzTMmaqs2IJ-442" value="created_at" style="shape=partialRectangle;connectable=0;fillColor=none;top=0;left=0;bottom=0;right=0;align=left;spacingLeft=6;fontStyle=5;overflow=hidden;whiteSpace=wrap;html=1;" vertex="1" parent="mHg_K5r4MnzTMmaqs2IJ-440">
          <mxGeometry x="30" width="150" height="30" as="geometry">
            <mxRectangle width="150" height="30" as="alternateBounds" />
          </mxGeometry>
        </mxCell>
        <mxCell id="mHg_K5r4MnzTMmaqs2IJ-443" value="" style="shape=tableRow;horizontal=0;startSize=0;swimlaneHead=0;swimlaneBody=0;fillColor=none;collapsible=0;dropTarget=0;points=[[0,0.5],[1,0.5]];portConstraint=eastwest;top=0;left=0;right=0;bottom=0;" vertex="1" parent="mHg_K5r4MnzTMmaqs2IJ-439">
          <mxGeometry y="150" width="180" height="20" as="geometry" />
        </mxCell>
        <mxCell id="mHg_K5r4MnzTMmaqs2IJ-444" value="" style="shape=partialRectangle;connectable=0;fillColor=none;top=0;left=0;bottom=0;right=0;editable=1;overflow=hidden;whiteSpace=wrap;html=1;" vertex="1" parent="mHg_K5r4MnzTMmaqs2IJ-443">
          <mxGeometry width="30" height="20" as="geometry">
            <mxRectangle width="30" height="20" as="alternateBounds" />
          </mxGeometry>
        </mxCell>
        <mxCell id="mHg_K5r4MnzTMmaqs2IJ-445" value="updated_at" style="shape=partialRectangle;connectable=0;fillColor=none;top=0;left=0;bottom=0;right=0;align=left;spacingLeft=6;overflow=hidden;whiteSpace=wrap;html=1;" vertex="1" parent="mHg_K5r4MnzTMmaqs2IJ-443">
          <mxGeometry x="30" width="150" height="20" as="geometry">
            <mxRectangle width="150" height="20" as="alternateBounds" />
          </mxGeometry>
        </mxCell>
        <mxCell id="mHg_K5r4MnzTMmaqs2IJ-449" value="" style="shape=tableRow;horizontal=0;startSize=0;swimlaneHead=0;swimlaneBody=0;fillColor=none;collapsible=0;dropTarget=0;points=[[0,0.5],[1,0.5]];portConstraint=eastwest;top=0;left=0;right=0;bottom=0;" vertex="1" parent="mHg_K5r4MnzTMmaqs2IJ-439">
          <mxGeometry y="170" width="180" height="30" as="geometry" />
        </mxCell>
        <mxCell id="mHg_K5r4MnzTMmaqs2IJ-450" value="" style="shape=partialRectangle;connectable=0;fillColor=none;top=0;left=0;bottom=0;right=0;editable=1;overflow=hidden;whiteSpace=wrap;html=1;" vertex="1" parent="mHg_K5r4MnzTMmaqs2IJ-449">
          <mxGeometry width="30" height="30" as="geometry">
            <mxRectangle width="30" height="30" as="alternateBounds" />
          </mxGeometry>
        </mxCell>
        <mxCell id="mHg_K5r4MnzTMmaqs2IJ-451" value="Row 3" style="shape=partialRectangle;connectable=0;fillColor=none;top=0;left=0;bottom=0;right=0;align=left;spacingLeft=6;overflow=hidden;whiteSpace=wrap;html=1;" vertex="1" parent="mHg_K5r4MnzTMmaqs2IJ-449">
          <mxGeometry x="30" width="150" height="30" as="geometry">
            <mxRectangle width="150" height="30" as="alternateBounds" />
          </mxGeometry>
        </mxCell>
        <mxCell id="mHg_K5r4MnzTMmaqs2IJ-452" style="edgeStyle=orthogonalEdgeStyle;rounded=0;orthogonalLoop=1;jettySize=auto;html=1;exitX=0.75;exitY=0;exitDx=0;exitDy=0;entryX=0.029;entryY=-0.093;entryDx=0;entryDy=0;entryPerimeter=0;" edge="1" parent="1" source="mHg_K5r4MnzTMmaqs2IJ-371" target="mHg_K5r4MnzTMmaqs2IJ-346">
          <mxGeometry relative="1" as="geometry" />
        </mxCell>
        <mxCell id="mHg_K5r4MnzTMmaqs2IJ-453" style="edgeStyle=orthogonalEdgeStyle;rounded=0;orthogonalLoop=1;jettySize=auto;html=1;exitX=0.5;exitY=0;exitDx=0;exitDy=0;entryX=0.502;entryY=1.204;entryDx=0;entryDy=0;entryPerimeter=0;" edge="1" parent="1" source="mHg_K5r4MnzTMmaqs2IJ-358" target="mHg_K5r4MnzTMmaqs2IJ-352">
          <mxGeometry relative="1" as="geometry">
            <Array as="points">
              <mxPoint x="1108" y="1250" />
              <mxPoint x="1110" y="1250" />
              <mxPoint x="1110" y="1186" />
            </Array>
          </mxGeometry>
        </mxCell>
        <mxCell id="mHg_K5r4MnzTMmaqs2IJ-454" style="edgeStyle=orthogonalEdgeStyle;rounded=0;orthogonalLoop=1;jettySize=auto;html=1;exitX=1;exitY=0.5;exitDx=0;exitDy=0;entryX=0.047;entryY=0.87;entryDx=0;entryDy=0;entryPerimeter=0;" edge="1" parent="1" source="mHg_K5r4MnzTMmaqs2IJ-403" target="mHg_K5r4MnzTMmaqs2IJ-446">
          <mxGeometry relative="1" as="geometry" />
        </mxCell>
        <mxCell id="mHg_K5r4MnzTMmaqs2IJ-455" style="edgeStyle=orthogonalEdgeStyle;rounded=0;orthogonalLoop=1;jettySize=auto;html=1;exitX=0.5;exitY=0;exitDx=0;exitDy=0;entryX=0.914;entryY=0.907;entryDx=0;entryDy=0;entryPerimeter=0;" edge="1" parent="1" source="mHg_K5r4MnzTMmaqs2IJ-384" target="mHg_K5r4MnzTMmaqs2IJ-397">
          <mxGeometry relative="1" as="geometry" />
        </mxCell>
      </root>
    </mxGraphModel>
  </diagram>
</mxfile>
